<?xml version="1.0" standalone="no"?>
<!DOCTYPE svg PUBLIC "-//W3C//DTD SVG 20010904//EN"
 "http://www.w3.org/TR/2001/REC-SVG-20010904/DTD/svg10.dtd">
<svg version="1.0" xmlns="http://www.w3.org/2000/svg"
 width="1000.000000pt" height="1000.000000pt" viewBox="0 0 1000.000000 1000.000000"
 preserveAspectRatio="xMidYMid meet">

<g transform="translate(0.000000,1000.000000) scale(0.100000,-0.100000)"
fill="#000000" stroke="none">
<path d="M4795 7980 c-132 -8 -184 -14 -330 -41 -33 -6 -73 -13 -90 -16 -16
-2 -52 -10 -80 -18 -27 -8 -77 -22 -110 -31 -71 -19 -218 -67 -260 -84 -58
-24 -70 -29 -120 -50 -75 -33 -215 -101 -255 -126 -19 -11 -62 -36 -95 -54
-127 -70 -351 -240 -510 -386 -252 -233 -487 -553 -642 -874 -30 -63 -60 -126
-65 -140 -15 -38 -33 -81 -52 -123 -9 -21 -16 -44 -16 -51 0 -8 -7 -27 -15
-42 -8 -16 -15 -39 -15 -51 0 -12 -4 -24 -9 -27 -5 -3 -12 -26 -15 -51 -4 -24
-11 -47 -17 -50 -5 -4 -9 -19 -9 -34 0 -15 -6 -47 -14 -72 -13 -41 -25 -107
-60 -349 -17 -116 -15 -567 3 -680 50 -313 65 -376 144 -615 134 -404 370
-792 672 -1104 95 -98 237 -226 335 -301 25 -19 47 -37 50 -41 14 -17 226
-152 312 -198 307 -167 521 -247 853 -321 114 -25 382 -60 465 -60 l42 0 -6
63 c-4 34 -11 96 -16 137 -14 111 -37 335 -56 550 -5 55 -12 81 -27 98 -12 12
-26 21 -31 19 -22 -8 -48 16 -71 68 -14 30 -25 59 -25 64 0 6 -4 19 -9 29 -5
9 -16 35 -24 57 -8 22 -27 69 -41 104 -34 82 -29 89 66 80 96 -10 614 -10 701
0 46 5 71 4 77 -4 9 -10 -7 -69 -29 -113 -5 -9 -17 -37 -26 -62 -9 -25 -21
-53 -26 -62 -5 -10 -9 -23 -9 -29 0 -5 -11 -34 -25 -64 -24 -53 -49 -76 -71
-68 -14 5 -56 -46 -48 -58 3 -5 0 -35 -6 -66 -7 -32 -15 -103 -20 -158 -5 -55
-13 -145 -19 -200 -15 -139 -31 -282 -37 -333 -4 -33 -2 -43 12 -49 34 -13
363 27 509 62 33 8 92 22 130 31 184 43 398 125 615 237 182 94 367 216 530
350 120 98 281 257 387 382 59 69 203 259 203 268 0 3 17 31 39 63 51 78 103
172 147 264 20 41 47 98 60 125 35 73 106 271 144 400 32 109 65 269 80 385 5
41 14 99 18 129 13 73 13 506 1 589 -6 37 -14 101 -20 142 -14 112 -50 285
-84 400 -9 30 -20 69 -25 85 -4 17 -18 55 -30 85 -11 30 -28 75 -36 100 -19
56 -214 450 -223 450 -4 0 -15 17 -26 37 -95 180 -448 585 -631 724 -33 25
-81 62 -109 83 -27 20 -57 43 -65 49 -46 35 -158 108 -190 123 -8 4 -42 24
-75 44 -57 35 -159 86 -289 145 -62 28 -90 38 -196 74 -36 12 -74 26 -85 31
-11 4 -40 13 -65 20 -25 6 -70 18 -100 26 -97 27 -290 61 -420 73 -152 15
-374 20 -525 11z m405 -1344 c125 -16 193 -29 255 -50 22 -8 60 -20 85 -27 57
-16 259 -110 325 -151 163 -103 365 -285 462 -418 87 -120 170 -272 232 -427
54 -133 113 -430 93 -461 -7 -10 -57 -12 -248 -7 -632 16 -668 13 -762 -63
-90 -73 -190 -188 -283 -327 -70 -104 -69 -102 -134 -231 -68 -136 -78 -191
-45 -258 42 -88 179 -184 306 -216 131 -33 196 63 270 400 9 41 20 91 25 110
22 84 61 298 60 326 l-1 31 107 6 c60 4 149 13 198 20 63 9 153 11 300 8 l210
-6 -2 -64 c-8 -182 -96 -467 -200 -648 -64 -111 -74 -126 -121 -188 -268 -353
-656 -585 -1088 -650 -172 -26 -261 -28 -409 -10 -220 27 -380 73 -562 161
-168 83 -277 159 -433 306 -69 64 -240 274 -240 294 0 4 -6 15 -14 23 -25 28
-123 233 -151 316 -62 181 -101 385 -84 433 8 21 12 22 156 22 82 0 223 -7
314 -14 231 -19 461 -5 490 31 6 7 17 13 23 13 20 0 171 161 244 260 87 120
190 286 226 369 15 35 30 89 33 122 5 53 3 62 -27 109 -65 101 -227 195 -336
195 -48 0 -67 -5 -84 -20 -53 -48 -93 -152 -146 -380 -47 -200 -84 -392 -84
-432 0 -36 4 -35 -219 -53 -68 -6 -128 -13 -134 -17 -18 -11 -440 -3 -454 9
-25 21 24 306 78 448 11 30 24 66 28 80 22 70 147 293 196 350 12 14 30 38 40
55 34 55 209 227 301 296 51 38 95 69 99 69 3 0 21 11 39 25 67 51 278 143
421 184 199 56 433 73 645 47z"/>
</g>
</svg>
