<?xml version="1.0" standalone="no"?>
<!DOCTYPE svg PUBLIC "-//W3C//DTD SVG 20010904//EN"
 "http://www.w3.org/TR/2001/REC-SVG-20010904/DTD/svg10.dtd">
<svg version="1.0" xmlns="http://www.w3.org/2000/svg"
 width="1000.000000pt" height="1000.000000pt" viewBox="0 0 1000.000000 1000.000000"
 preserveAspectRatio="xMidYMid meet">

<g transform="translate(0.000000,1000.000000) scale(0.100000,-0.100000)"
fill="#000000" stroke="none">
<path d="M4796 6664 c-496 -98 -857 -513 -883 -1015 -16 -321 103 -619 338
-845 130 -124 281 -210 454 -259 81 -22 245 -49 253 -40 2 1 -4 70 -13 151
-13 124 -19 152 -35 164 -14 11 -70 127 -70 144 0 1 72 1 160 1 88 0 160 0
160 -1 0 -17 -56 -133 -70 -144 -16 -12 -22 -40 -35 -164 -9 -81 -15 -150 -13
-151 8 -9 172 18 253 40 177 50 322 134 461 267 229 220 347 519 331 837 -26
505 -391 921 -890 1016 -98 18 -306 18 -401 -1z m394 -500 c142 -45 271 -154
343 -291 35 -67 67 -171 67 -222 l0 -24 -142 6 c-79 4 -158 3 -176 -1 -43 -9
-112 -79 -169 -169 -57 -92 -65 -138 -29 -174 32 -32 100 -64 120 -56 29 11
50 61 77 181 15 66 26 123 23 127 -5 9 104 19 209 19 l90 0 -7 -52 c-18 -134
-80 -252 -185 -351 -187 -176 -448 -215 -681 -101 -100 49 -221 169 -268 267
-32 66 -62 169 -62 215 l0 23 169 -3 c158 -3 171 -2 198 18 69 51 176 223 171
276 -4 46 -76 100 -127 96 -30 -3 -39 -9 -54 -40 -20 -40 -69 -258 -58 -259 3
0 -5 -4 -17 -10 -13 -5 -82 -12 -153 -16 l-129 -6 0 29 c0 55 31 157 67 227
138 262 436 382 723 291z"/>
</g>
</svg>
