<?xml version="1.0" standalone="no"?>
<!DOCTYPE svg PUBLIC "-//W3C//DTD SVG 20010904//EN"
 "http://www.w3.org/TR/2001/REC-SVG-20010904/DTD/svg10.dtd">
<svg version="1.0" xmlns="http://www.w3.org/2000/svg"
 width="1000.000000pt" height="1000.000000pt" viewBox="0 0 1000.000000 1000.000000"
 preserveAspectRatio="xMidYMid meet">
<metadata>
Created by potrace 1.14, written by Peter Selinger 2001-2017
</metadata>
<g transform="translate(0.000000,1000.000000) scale(0.100000,-0.100000)"
fill="#000000" stroke="none">
<path d="M7672 9985 c20 -7 52 -16 70 -19 28 -4 34 -2 35 14 2 18 -5 20 -70
19 l-72 0 37 -14z"/>
<path d="M4596 9646 c6 -16 4 -18 -14 -14 -15 4 -19 2 -15 -8 3 -8 0 -14 -6
-14 -6 0 -11 6 -11 13 -1 6 -7 1 -16 -13 -11 -19 -14 -20 -9 -5 4 16 0 21 -15
22 -11 1 -22 -2 -25 -8 -3 -5 1 -6 9 -3 9 3 16 1 16 -4 0 -11 -31 -9 -51 3 -6
4 -16 -1 -24 -11 -12 -17 -14 -18 -20 -2 -4 11 -14 15 -28 12 -12 -3 -29 -6
-37 -8 -8 -2 -13 -7 -10 -12 3 -5 9 -8 13 -6 5 1 6 -2 2 -8 -5 -8 -11 -8 -21
1 -7 6 -12 15 -9 19 3 5 1 11 -4 14 -5 4 -13 1 -16 -5 -4 -5 -13 -8 -21 -5 -8
3 -11 0 -8 -8 3 -8 0 -17 -7 -22 -8 -4 -10 -3 -5 4 9 15 1 15 -26 1 -12 -7
-18 -7 -14 -1 7 12 -20 10 -31 -3 -4 -4 -2 -5 5 -1 18 10 15 1 -5 -15 -9 -8
-14 -9 -10 -3 4 7 1 17 -7 23 -14 11 -26 5 -26 -13 0 -6 5 -4 10 4 5 8 10 10
10 4 0 -21 -14 -24 -32 -7 -16 15 -21 15 -28 3 -5 -8 -7 -17 -5 -20 2 -4 -10
-4 -27 -2 -21 3 -26 7 -17 13 10 6 10 9 2 9 -6 0 -15 -5 -18 -10 -5 -8 -12 -7
-23 2 -10 8 -13 9 -9 1 10 -17 -13 -28 -24 -12 -6 9 -8 4 -3 -16 4 -22 3 -26
-5 -15 -6 9 -26 15 -50 15 -32 0 -38 -2 -29 -13 9 -10 8 -12 -3 -10 -8 2 -17
8 -21 13 -4 6 -8 -1 -9 -15 0 -14 -3 -19 -6 -12 -2 6 -9 12 -14 12 -6 0 -7 -4
-4 -10 3 -5 1 -10 -4 -10 -6 0 -11 5 -11 10 0 6 -4 10 -9 10 -5 0 -6 -10 -3
-22 5 -21 4 -22 -11 -6 -20 19 -61 13 -53 -9 4 -10 1 -11 -12 -5 -19 10 -45 5
-37 -8 3 -5 -8 -7 -24 -5 -17 2 -34 -2 -41 -10 -7 -8 -15 -13 -19 -10 -15 9
-61 13 -56 6 2 -5 -3 -15 -12 -22 -14 -12 -16 -12 -8 1 4 8 5 12 0 8 -4 -4
-15 -2 -24 5 -14 11 -14 10 -2 -6 13 -17 9 -31 -10 -33 -5 -1 -10 -2 -11 -4
-2 -1 -13 -3 -25 -4 -17 -2 -20 0 -12 10 7 8 7 14 -1 19 -6 4 -9 1 -8 -7 2 -7
-5 -12 -15 -12 -18 2 -18 1 0 -20 9 -11 12 -16 4 -10 -16 14 -53 6 -44 -10 4
-6 1 -6 -9 2 -12 10 -17 10 -27 -1 -6 -8 -7 -18 -3 -22 4 -5 2 -5 -5 -1 -7 4
-11 12 -9 19 1 7 1 9 -1 4 -3 -4 -10 -4 -15 -1 -7 5 -8 2 -3 -6 6 -10 4 -12
-9 -7 -12 5 -19 0 -26 -16 -5 -12 -9 -16 -9 -8 -1 11 -5 10 -16 -5 -15 -19
-15 -19 -9 1 5 19 5 19 -9 3 -8 -10 -17 -18 -20 -18 -4 0 -4 8 0 18 5 14 3 13
-10 -3 -8 -11 -13 -23 -11 -26 2 -4 -6 -10 -19 -14 -34 -12 -57 -13 -51 -3 3
4 10 6 15 2 12 -7 39 14 39 29 0 6 -6 3 -13 -7 -7 -9 -17 -16 -22 -15 -19 6
-57 -22 -51 -38 4 -9 1 -13 -6 -10 -7 2 -12 10 -10 16 1 7 -2 9 -8 6 -6 -4 -9
-13 -6 -21 4 -12 2 -12 -15 -4 -21 12 -54 -4 -44 -20 3 -5 1 -11 -4 -14 -5 -4
-13 -1 -17 5 -5 8 -3 9 6 4 9 -5 11 -4 6 4 -6 9 -11 9 -22 0 -16 -13 -19 -23
-4 -14 6 3 7 -1 4 -10 -6 -14 -8 -14 -21 2 -14 17 -14 17 -9 -1 5 -16 4 -17
-8 -7 -12 10 -17 8 -27 -11 -7 -13 -12 -27 -11 -31 1 -4 -10 0 -25 10 -16 11
-24 13 -19 5 5 -9 1 -15 -13 -19 -19 -5 -26 -15 -22 -36 1 -5 -3 -6 -8 -2 -6
3 -7 13 -4 23 4 11 -2 8 -16 -8 -12 -14 -20 -20 -17 -13 4 6 0 10 -9 9 -19 -3
-26 -10 -30 -33 -2 -10 -4 -19 -4 -21 -1 -1 -10 2 -20 7 -16 9 -18 8 -14 -12
4 -21 4 -21 -8 -3 -11 18 -13 17 -25 -10 -12 -26 -13 -26 -8 -4 4 18 3 21 -5
11 -5 -8 -17 -16 -26 -17 -22 -3 -26 -8 -28 -32 0 -11 -5 -19 -9 -16 -4 3 -5
12 -2 22 5 14 4 15 -5 2 -6 -8 -11 -11 -11 -6 0 5 -7 3 -15 -4 -9 -7 -14 -19
-11 -26 3 -8 0 -11 -10 -7 -7 3 -14 10 -14 16 0 6 -3 7 -6 4 -4 -4 -2 -13 5
-20 9 -12 6 -14 -14 -12 -14 2 -23 -1 -19 -6 5 -8 -10 -13 -29 -10 -4 1 -7 -7
-5 -16 2 -14 -3 -17 -19 -15 -13 2 -23 -2 -23 -8 0 -6 5 -8 12 -4 7 4 8 3 4
-5 -6 -9 -11 -9 -24 1 -12 10 -14 10 -8 1 4 -7 2 -13 -3 -13 -6 0 -11 5 -11
12 0 6 -3 9 -6 6 -3 -4 0 -17 7 -30 11 -21 11 -22 -4 -9 -11 9 -17 10 -17 2 0
-6 -5 -11 -11 -11 -5 0 -7 5 -3 12 4 7 3 8 -5 4 -9 -6 -9 -11 1 -24 12 -14 10
-14 -11 -3 -15 8 -21 9 -17 2 4 -6 2 -11 -4 -11 -6 0 -8 -5 -4 -11 4 -8 0 -8
-15 0 -17 9 -21 9 -19 -1 2 -7 -3 -12 -11 -10 -12 3 -12 0 -2 -12 9 -11 9 -16
0 -22 -8 -4 -9 -3 -5 4 4 7 2 12 -3 12 -6 0 -11 -7 -11 -15 0 -8 -5 -15 -11
-15 -5 0 -7 6 -3 13 6 9 5 9 -8 0 -8 -7 -19 -9 -24 -5 -4 4 -3 0 4 -10 10 -12
10 -18 1 -24 -8 -4 -9 -3 -5 4 4 7 3 12 -2 12 -5 0 -12 -9 -15 -21 -5 -17 -9
-19 -24 -10 -16 8 -19 6 -19 -12 1 -15 -6 -23 -21 -25 -13 -2 -23 -8 -23 -13
0 -6 5 -7 12 -3 7 4 8 3 4 -5 -6 -9 -11 -9 -24 1 -13 11 -15 10 -9 -4 3 -10 2
-20 -3 -23 -5 -3 -11 3 -13 12 -3 13 -5 10 -6 -7 -1 -20 -3 -22 -11 -10 -8 13
-10 12 -10 -2 0 -10 -5 -18 -11 -18 -5 0 -8 -4 -5 -9 3 -4 -7 -13 -22 -20 -24
-10 -25 -10 -9 2 9 8 17 18 17 22 0 5 -8 1 -18 -8 -10 -10 -21 -14 -25 -11 -3
3 -3 -3 -1 -13 3 -11 -2 -25 -12 -34 -16 -13 -16 -12 -4 11 12 23 12 24 -4 11
-10 -8 -15 -22 -13 -31 3 -13 -1 -16 -19 -14 -15 1 -21 -2 -18 -11 3 -7 0 -16
-7 -21 -8 -5 -10 -3 -4 6 6 9 4 11 -4 6 -7 -5 -10 -14 -7 -22 3 -8 2 -13 -2
-12 -4 1 -17 -1 -29 -6 -15 -5 -20 -12 -16 -24 3 -9 3 -14 -2 -10 -11 10 -46
-32 -38 -46 4 -6 -2 -4 -12 4 -15 12 -17 12 -10 1 6 -11 4 -13 -10 -7 -15 5
-16 4 -6 -8 11 -13 8 -14 -16 -10 -21 3 -24 2 -13 -5 13 -9 13 -12 1 -23 -10
-10 -12 -10 -7 0 4 6 2 12 -3 12 -6 0 -11 -5 -11 -11 0 -5 -5 -7 -11 -3 -7 4
-7 -1 1 -16 7 -13 8 -20 2 -16 -6 3 -13 2 -17 -4 -4 -6 -11 -8 -16 -5 -5 3 -6
-2 -2 -11 4 -11 2 -15 -4 -11 -6 4 -13 -2 -16 -13 -3 -13 -11 -18 -21 -14 -11
4 -14 1 -11 -16 4 -19 2 -20 -12 -8 -15 11 -16 11 -10 -6 6 -16 5 -17 -7 -7
-13 11 -15 9 -11 -8 3 -14 0 -19 -7 -15 -8 5 -9 1 -5 -10 4 -9 3 -15 -2 -11
-5 3 -16 -1 -24 -9 -8 -8 -16 -14 -18 -13 -3 1 3 -4 11 -12 13 -12 13 -13 -4
-7 -14 5 -17 3 -12 -10 5 -13 3 -14 -6 -7 -9 7 -18 4 -30 -9 -20 -20 -10 -25
12 -5 12 10 12 9 1 -5 -7 -10 -22 -18 -32 -18 -11 0 -19 -5 -19 -11 0 -5 6 -7
13 -3 6 4 2 -4 -11 -18 -12 -13 -19 -28 -15 -33 5 -4 2 -5 -5 -1 -8 5 -16 -1
-21 -16 -6 -13 -10 -17 -10 -10 -1 6 -5 12 -10 12 -5 0 -8 -7 -7 -16 0 -9 -5
-19 -13 -22 -8 -3 -11 0 -7 7 5 7 1 9 -9 4 -9 -3 -13 -9 -8 -12 14 -11 15 -34
0 -28 -8 3 -20 1 -28 -5 -11 -8 -10 -9 4 -4 9 3 17 1 17 -4 0 -6 -5 -10 -11
-10 -5 0 -7 -5 -3 -12 5 -8 2 -9 -9 -5 -10 4 -16 2 -14 -6 1 -7 -4 -11 -11 -9
-10 2 -10 -2 -3 -17 12 -21 0 -23 -29 -7 -12 7 -13 6 -3 -5 18 -18 16 -26 -7
-32 -14 -4 -18 -10 -13 -23 5 -14 3 -16 -11 -11 -10 4 -15 3 -11 -3 3 -6 2
-10 -4 -10 -6 0 -7 -7 -4 -17 5 -12 3 -14 -8 -8 -11 7 -11 5 1 -10 14 -17 13
-18 -4 -12 -15 6 -17 4 -13 -12 5 -22 -15 -46 -28 -33 -5 4 -6 0 -2 -9 4 -12
0 -15 -19 -13 -21 2 -22 0 -14 -17 7 -13 7 -19 0 -19 -5 0 -10 5 -10 12 0 6
-3 8 -6 5 -4 -4 -1 -14 7 -24 8 -9 9 -14 4 -11 -13 8 -24 1 -45 -26 -9 -12
-10 -17 -2 -12 7 4 12 1 12 -9 0 -9 -4 -13 -10 -10 -5 3 -10 1 -10 -4 0 -6 -5
-10 -12 -8 -7 1 -13 -4 -14 -10 -1 -7 -2 -18 -3 -24 0 -5 -7 -7 -13 -3 -9 5
-9 3 1 -9 11 -14 11 -18 -3 -23 -9 -3 -13 -10 -10 -15 3 -5 0 -9 -6 -9 -6 0
-8 -4 -5 -10 6 -9 -8 -15 -29 -11 -5 1 -3 -6 5 -15 12 -16 12 -17 -3 -11 -10
3 -18 2 -18 -4 0 -6 -5 -7 -12 -3 -7 4 -8 3 -4 -4 4 -6 14 -8 23 -5 11 4 14 3
9 -5 -4 -7 -15 -12 -24 -13 -11 0 -12 -2 -4 -6 9 -3 7 -9 -6 -21 -10 -10 -13
-13 -6 -9 7 4 15 3 19 -3 4 -6 3 -10 -2 -9 -4 1 -18 -2 -31 -6 -21 -7 -21 -8
-5 -21 16 -12 16 -13 -7 -9 -24 4 -25 4 -5 -12 20 -15 20 -15 -2 -10 -14 3
-24 -1 -27 -10 -10 -25 -7 -33 12 -27 9 3 7 -1 -6 -8 -12 -8 -19 -18 -15 -23
4 -4 1 -6 -7 -3 -11 4 -16 -1 -17 -13 -1 -12 3 -17 10 -13 8 5 7 2 -1 -7 -11
-12 -14 -12 -23 1 -9 12 -10 12 -5 -3 3 -10 6 -21 6 -23 0 -3 5 -2 12 2 6 4 3
-5 -8 -19 -10 -15 -23 -27 -28 -27 -5 0 -1 9 9 20 10 11 13 20 8 20 -6 0 -14
-7 -17 -16 -3 -9 -11 -12 -18 -8 -10 6 -10 5 -1 -7 10 -12 10 -18 0 -29 -8 -8
-8 -11 -1 -7 7 4 15 0 18 -9 3 -8 2 -12 -4 -9 -5 3 -18 1 -27 -5 -14 -9 -14
-10 -2 -7 9 3 16 -1 16 -8 0 -7 -8 -12 -19 -10 -15 3 -16 1 -8 -15 7 -13 7
-21 0 -25 -6 -4 -8 -11 -5 -16 4 -5 -2 -6 -12 -2 -15 6 -16 4 -5 -9 10 -13 10
-18 1 -24 -8 -4 -9 -3 -5 4 4 7 2 12 -3 12 -6 0 -11 -5 -11 -11 0 -5 -4 -7
-10 -4 -5 3 -7 0 -4 -8 3 -8 1 -18 -5 -22 -6 -3 -11 -11 -11 -17 0 -5 9 0 19
13 18 22 18 20 -2 -23 -12 -25 -26 -44 -32 -40 -5 3 -4 -1 3 -10 8 -10 9 -19
3 -22 -5 -4 -8 -16 -6 -27 3 -16 0 -19 -12 -15 -11 5 -14 2 -9 -9 4 -10 -3
-19 -19 -27 -14 -6 -25 -15 -25 -20 0 -5 5 -6 12 -2 8 5 9 2 5 -10 -4 -10 -7
-20 -7 -22 0 -3 -4 -3 -9 0 -5 4 -8 -5 -6 -20 1 -17 -2 -24 -10 -20 -8 3 -11
-2 -8 -15 3 -10 0 -19 -6 -19 -7 0 -8 -8 -1 -25 6 -16 6 -27 -2 -31 -6 -4 -8
-3 -4 4 3 6 2 13 -3 16 -4 3 -8 -2 -8 -12 0 -49 -4 -63 -15 -56 -8 5 -9 0 -6
-14 6 -23 -7 -31 -15 -9 -3 6 -4 2 -4 -11 1 -13 6 -21 14 -18 7 3 10 -1 6 -10
-3 -7 -10 -14 -15 -14 -6 0 -6 -6 1 -14 10 -12 8 -14 -11 -10 -20 5 -21 4 -6
-6 10 -6 18 -16 18 -23 0 -7 -4 -6 -10 3 -9 13 -10 13 -10 0 0 -13 -2 -13 -11
0 -9 13 -10 12 -5 -2 3 -10 0 -18 -6 -18 -7 0 -3 -7 8 -16 13 -11 14 -14 3
-11 -9 3 -16 -1 -16 -9 0 -7 4 -11 8 -9 4 3 6 -3 5 -12 -2 -9 -8 -19 -14 -21
-9 -3 -9 -9 0 -25 10 -19 9 -20 -4 -9 -10 8 -19 9 -22 3 -4 -5 -2 -12 3 -16 6
-3 8 -12 5 -20 -4 -8 -10 -12 -15 -9 -5 3 -6 -2 -3 -11 5 -13 9 -13 23 -3 14
11 14 11 4 -3 -7 -9 -9 -19 -5 -24 4 -4 -4 -2 -18 5 -22 12 -24 11 -13 -2 7
-8 10 -18 6 -21 -3 -4 0 -7 8 -8 8 0 6 -4 -6 -8 -11 -5 -20 -18 -20 -34 -1
-17 2 -24 9 -20 6 4 5 -1 -3 -10 -11 -13 -11 -17 -1 -17 8 0 10 -3 6 -7 -4 -5
-14 0 -21 11 -13 17 -14 16 -11 -10 2 -16 1 -33 -2 -39 -12 -20 -10 -35 4 -35
9 0 12 -5 9 -10 -4 -6 -11 -7 -17 -4 -5 4 -5 -4 2 -16 11 -20 10 -22 -4 -17
-9 4 -16 2 -16 -3 0 -6 5 -10 11 -10 5 0 7 -5 4 -10 -4 -6 -10 -8 -14 -5 -5 2
-6 -6 -4 -18 2 -12 -1 -36 -8 -52 -15 -37 -18 -66 -7 -59 4 3 9 2 9 -3 6 -39
5 -51 -6 -47 -6 3 -12 -2 -12 -10 0 -8 4 -13 8 -10 4 2 11 0 14 -6 4 -6 3 -10
-2 -9 -20 3 -34 -2 -28 -11 4 -6 11 -7 17 -4 7 5 8 2 4 -5 -5 -7 -15 -10 -25
-7 -9 4 -5 -3 9 -16 14 -12 18 -19 8 -15 -23 8 -31 -29 -10 -50 16 -15 15 -16
-5 -11 -28 7 -29 2 -5 -20 10 -10 13 -14 6 -9 -6 4 -17 0 -24 -8 -11 -13 -10
-14 6 -8 17 6 18 5 4 -12 -8 -10 -10 -16 -5 -13 6 4 17 2 25 -4 12 -8 12 -9
-2 -4 -10 3 -18 0 -18 -6 0 -6 -6 -6 -17 3 -10 7 -8 2 5 -12 23 -27 22 -56 -5
-72 -7 -4 -13 -13 -13 -20 0 -7 4 -6 10 3 8 13 11 13 22 1 11 -11 11 -13 -1
-6 -11 6 -13 4 -8 -8 4 -10 2 -17 -5 -17 -6 0 -5 -6 3 -17 12 -14 12 -16 -1
-9 -8 4 -6 0 4 -8 11 -9 15 -16 8 -16 -6 0 -9 -9 -7 -19 2 -13 -1 -18 -10 -15
-7 3 -16 0 -20 -6 -3 -6 -3 -10 2 -9 20 3 25 -2 13 -16 -11 -13 -10 -14 6 -9
18 6 18 6 0 -8 -19 -15 -19 -15 0 -27 18 -12 18 -12 -3 -8 -15 3 -20 1 -16 -9
3 -8 9 -11 14 -8 5 3 9 0 9 -5 0 -6 -5 -11 -11 -11 -8 0 -7 -5 1 -15 10 -12
10 -19 2 -27 -15 -15 -16 -32 -2 -23 5 3 10 1 10 -4 0 -6 -4 -11 -9 -11 -5 0
-8 -11 -8 -25 0 -13 2 -23 6 -21 10 6 7 -71 -3 -81 -5 -5 -6 -3 -2 4 5 9 2 11
-8 7 -16 -6 -23 -25 -9 -23 22 4 29 -4 28 -31 0 -16 -3 -30 -7 -30 -5 0 -8 5
-8 12 0 6 -3 8 -6 5 -4 -4 -1 -14 7 -23 16 -20 22 -54 9 -54 -6 0 -10 -5 -10
-11 0 -5 4 -8 9 -4 5 3 13 0 17 -6 5 -8 3 -9 -6 -4 -8 5 -11 3 -8 -6 3 -8 -2
-23 -11 -34 -13 -16 -13 -18 -1 -8 13 10 18 8 30 -10 12 -19 11 -21 -2 -9 -13
10 -15 8 -10 -15 2 -16 10 -34 16 -42 9 -12 8 -13 -3 -6 -11 6 -13 4 -8 -8 4
-10 2 -17 -5 -17 -6 0 -5 -6 3 -17 8 -10 9 -14 2 -10 -8 5 -11 1 -8 -13 2 -11
-2 -20 -8 -20 -8 0 -8 -3 -2 -8 14 -9 17 -52 4 -52 -6 0 -7 -5 -3 -11 4 -8 9
-7 15 2 4 7 11 10 15 6 4 -4 2 -13 -4 -19 -8 -8 -7 -15 6 -25 16 -14 16 -14 0
-9 -10 3 -18 1 -18 -4 0 -6 3 -10 8 -10 4 0 13 -10 21 -21 10 -17 10 -23 1
-29 -7 -4 -9 -13 -6 -19 4 -6 12 -8 18 -5 7 4 8 2 4 -5 -4 -6 -12 -9 -17 -6
-5 4 -9 2 -9 -3 0 -6 7 -13 16 -16 8 -3 13 -10 10 -15 -4 -5 -3 -11 1 -14 5
-2 3 -3 -3 -1 -6 1 -8 -13 -4 -40 4 -26 11 -40 19 -38 7 1 10 -2 6 -8 -3 -6
-10 -8 -15 -5 -4 3 -10 -2 -13 -10 -4 -10 -1 -12 11 -8 15 6 15 5 3 -11 -13
-15 -13 -19 -1 -26 8 -5 19 -6 25 -2 5 3 4 -1 -2 -10 -7 -8 -10 -18 -6 -21 12
-13 11 -97 -1 -90 -6 4 -5 -1 3 -10 15 -18 26 -23 16 -7 -3 6 -1 10 4 10 14 0
14 -13 -1 -28 -9 -9 -9 -12 1 -12 11 0 11 -3 0 -17 -8 -10 -9 -14 -2 -10 12 7
13 3 14 -50 0 -13 5 -26 11 -29 7 -4 8 -2 4 4 -5 8 -2 10 9 6 13 -5 12 -9 -7
-27 -19 -16 -20 -19 -4 -13 13 4 17 2 13 -8 -3 -8 -1 -17 6 -20 8 -3 7 -5 -3
-6 -10 0 -6 -6 10 -15 14 -8 20 -14 14 -15 -17 0 -25 -28 -12 -36 7 -5 8 -2 3
7 -6 10 -5 11 3 4 6 -6 12 -25 14 -43 1 -17 6 -32 11 -32 5 0 4 -7 -3 -15 -14
-17 0 -21 17 -4 9 9 11 7 9 -7 -2 -11 -8 -19 -14 -19 -6 0 -14 -4 -19 -9 -5
-5 -3 -6 5 -2 11 7 17 -5 13 -27 -1 -5 3 -6 8 -3 5 3 11 -1 14 -9 4 -10 1 -12
-11 -9 -15 5 -14 4 1 -6 12 -8 16 -18 11 -32 -4 -14 -2 -18 5 -14 13 8 16 -34
4 -50 -5 -5 0 -1 10 9 15 17 17 17 18 3 2 -24 4 -29 18 -55 7 -13 8 -21 3 -17
-6 3 -13 2 -17 -4 -3 -5 -1 -10 5 -10 6 0 9 -4 6 -9 -3 -4 3 -19 14 -31 11
-12 17 -27 14 -31 -3 -5 1 -9 8 -9 9 0 9 -3 -2 -10 -12 -8 -12 -10 5 -11 11 0
15 -3 8 -5 -7 -3 -9 -12 -6 -20 3 -7 9 -11 14 -8 5 3 9 1 9 -5 0 -5 -6 -12
-12 -14 -10 -4 -10 -6 0 -6 8 -1 10 -6 6 -13 -5 -8 0 -7 11 2 10 8 16 10 12 3
-4 -6 -1 -14 5 -16 7 -3 4 -6 -7 -7 -18 -1 -18 -2 5 -16 14 -8 17 -13 8 -10
-12 3 -15 1 -11 -9 3 -8 10 -12 17 -8 6 4 5 -1 -3 -11 -8 -9 -10 -16 -5 -15
28 5 36 -2 32 -30 -2 -17 -1 -28 4 -25 4 3 8 0 8 -5 0 -6 -5 -11 -11 -11 -5 0
2 -11 16 -24 15 -14 24 -30 20 -35 -3 -6 1 -11 9 -11 8 0 18 -4 21 -10 3 -6
-1 -7 -9 -4 -11 4 -16 0 -16 -11 0 -9 4 -14 9 -10 5 3 13 0 16 -6 4 -5 14 -8
22 -5 8 4 11 1 8 -5 -4 -6 -13 -8 -21 -5 -7 3 -16 0 -20 -6 -4 -6 -3 -8 4 -4
10 6 26 -25 27 -53 0 -8 8 -15 18 -17 22 -3 36 -14 18 -14 -7 0 -9 -5 -6 -10
4 -6 12 -8 18 -4 7 3 3 -2 -7 -10 -11 -9 -14 -16 -7 -16 7 0 10 -4 6 -9 -3 -5
-1 -12 4 -15 5 -4 13 -1 17 5 4 7 3 9 -3 6 -5 -3 -10 0 -10 8 0 11 4 12 13 4
6 -5 10 -20 7 -32 -4 -18 -3 -19 6 -7 9 13 11 13 11 -2 0 -9 -6 -19 -12 -21
-7 -3 -2 -6 12 -6 20 -1 22 -3 10 -11 -13 -8 -12 -10 4 -10 14 0 16 -3 7 -13
-8 -11 -6 -18 11 -33 12 -10 18 -13 13 -5 -6 10 -4 12 4 6 7 -4 11 -18 8 -31
-2 -13 -1 -21 3 -19 6 4 18 -19 24 -47 0 -3 5 -10 10 -15 5 -5 6 -3 2 5 -4 6
-2 12 3 12 10 0 16 -30 12 -54 -1 -5 4 -4 12 3 12 9 15 8 13 -6 0 -10 -5 -22
-11 -26 -5 -5 1 -5 13 -2 22 6 23 5 11 -16 -12 -23 -12 -23 13 -7 20 13 25 13
25 3 0 -8 -4 -12 -9 -9 -4 3 -8 -2 -8 -11 0 -11 5 -15 15 -12 8 4 17 1 21 -5
4 -7 3 -8 -4 -4 -7 4 -12 1 -12 -9 0 -9 5 -13 10 -10 5 3 10 -1 10 -10 0 -9
-4 -14 -9 -11 -5 4 -7 -4 -3 -16 l5 -22 8 22 c10 26 15 27 23 6 3 -8 2 -13 -2
-10 -5 3 -9 -2 -9 -10 0 -9 11 -21 24 -27 12 -5 23 -14 23 -19 0 -5 -5 -6 -12
-2 -7 4 -8 3 -4 -5 6 -9 11 -9 24 1 10 8 13 9 9 1 -4 -6 4 -20 19 -32 15 -12
22 -21 15 -21 -18 0 -12 -18 8 -25 13 -4 18 -12 14 -22 -4 -11 -2 -14 5 -9 7
4 10 2 6 -7 -6 -16 20 -42 34 -33 5 3 7 -7 5 -22 -3 -23 -2 -24 6 -7 9 18 10
17 10 -9 1 -25 3 -27 18 -15 15 13 15 12 5 -8 -9 -16 -9 -24 0 -29 7 -5 8 -2
3 7 -5 10 -5 11 3 4 5 -5 12 -19 14 -30 2 -12 10 -19 20 -17 9 1 18 -4 21 -12
4 -11 0 -14 -15 -11 -11 3 -18 1 -14 -2 12 -12 40 -12 55 0 12 10 12 9 0 -10
-12 -21 -11 -25 21 -57 19 -19 37 -33 40 -31 3 2 12 -4 19 -13 13 -14 12 -15
-7 -10 -13 4 -20 2 -16 -4 4 -5 17 -8 31 -5 16 3 21 1 15 -5 -7 -7 -4 -17 8
-30 10 -11 17 -25 16 -32 -2 -6 -1 -8 1 -3 8 13 31 8 37 -8 3 -9 16 -20 28
-25 13 -5 17 -9 11 -9 -7 -1 -13 -5 -13 -11 0 -5 6 -7 14 -4 9 3 13 -1 13 -13
-1 -12 4 -17 16 -17 14 2 15 -1 6 -12 -9 -11 -7 -14 11 -14 15 0 20 -5 17 -14
-8 -20 4 -28 20 -14 11 8 12 7 8 -5 -4 -8 -1 -18 6 -23 8 -5 10 -3 4 6 -5 8
-4 11 3 6 6 -4 8 -14 5 -24 -6 -15 -5 -15 10 -3 16 12 17 12 11 -5 -4 -10 -4
-16 0 -12 8 7 22 -2 56 -36 22 -22 27 -41 8 -30 -9 5 -9 3 1 -9 7 -9 17 -14
22 -11 5 3 9 -1 9 -8 0 -9 3 -9 10 2 8 13 10 12 11 -5 1 -11 1 -24 0 -28 -1
-5 3 -6 9 -2 6 3 7 11 4 17 -5 7 -2 8 5 4 7 -5 10 -14 7 -22 -3 -8 -2 -13 2
-12 14 4 52 -14 52 -24 0 -6 -6 -6 -15 2 -13 11 -14 10 -9 -4 4 -11 13 -15 26
-10 15 4 18 3 13 -7 -6 -9 -3 -11 9 -6 10 4 15 3 11 -3 -3 -5 3 -15 14 -21 10
-7 18 -17 17 -23 -2 -6 -1 -8 1 -3 8 13 25 7 20 -8 -4 -8 -1 -17 5 -21 7 -4 8
-3 4 4 -4 7 -1 12 9 12 9 0 13 -4 10 -10 -3 -5 -1 -10 5 -10 6 0 9 -4 6 -9 -6
-10 22 -25 41 -22 6 1 10 -8 9 -21 -2 -18 3 -23 22 -25 14 0 28 -7 33 -15 7
-10 9 -10 10 2 0 10 4 8 11 -6 5 -12 24 -29 41 -38 18 -9 24 -15 15 -12 -10 3
-20 1 -23 -3 -3 -5 8 -8 24 -7 20 1 33 -5 41 -19 12 -19 12 -19 -6 -5 -15 11
-16 11 -7 0 12 -13 26 -18 65 -22 10 -1 18 -8 18 -16 0 -7 -4 -10 -10 -7 -5 3
-10 1 -10 -5 0 -7 6 -10 14 -7 7 3 20 0 27 -6 10 -10 10 -8 0 6 -12 15 -12 17
3 11 12 -5 16 -14 13 -31 -3 -18 -1 -21 6 -14 8 8 15 5 25 -11 7 -13 11 -15 8
-6 -3 10 -1 20 5 23 5 4 8 1 7 -7 -2 -7 2 -12 9 -11 8 2 10 -4 6 -15 -6 -15
-3 -15 18 3 13 11 18 13 12 5 -19 -21 -16 -35 4 -19 11 10 14 10 9 2 -4 -7 -2
-13 3 -13 6 0 11 -7 11 -15 0 -13 4 -14 23 -4 20 11 21 11 8 -4 -11 -15 -11
-17 2 -17 8 0 18 -6 20 -12 4 -10 6 -10 6 0 1 8 7 6 19 -5 11 -10 16 -22 13
-28 -2 -5 3 -4 12 4 15 12 17 11 17 -6 0 -16 5 -19 33 -15 17 3 29 1 25 -3 -4
-4 2 -16 14 -26 16 -15 24 -16 35 -7 8 6 13 7 12 2 -5 -26 1 -36 15 -25 10 8
16 9 21 1 3 -6 10 -8 15 -5 5 3 7 -4 5 -16 -4 -17 -2 -19 10 -9 12 10 15 9 15
-5 0 -12 6 -16 20 -12 11 3 23 0 27 -5 4 -7 1 -8 -7 -3 -8 5 -11 4 -7 -3 4 -5
17 -8 30 -4 20 5 21 4 8 -12 -8 -9 -11 -19 -7 -23 3 -3 6 -1 6 5 0 7 7 12 15
12 8 0 15 5 15 12 0 6 3 8 6 5 4 -4 1 -14 -7 -24 -8 -9 -9 -14 -3 -10 7 4 17
1 23 -7 14 -16 54 -9 44 8 -3 6 -2 7 3 3 9 -9 10 -13 13 -41 1 -18 28 -28 37
-14 4 6 3 8 -4 4 -6 -3 -14 -1 -18 5 -4 8 -3 9 4 5 7 -4 12 -2 12 5 0 7 6 4
14 -6 8 -11 12 -24 9 -29 -4 -5 -1 -6 5 -3 17 11 41 -3 35 -21 -4 -14 -3 -15
5 -2 6 8 8 18 6 22 -3 4 0 8 7 8 6 0 9 -8 6 -20 -3 -10 -2 -19 2 -18 32 4 61
-4 55 -14 -6 -10 -4 -10 7 -1 7 7 18 13 24 13 5 0 3 -5 -5 -10 -13 -8 -12 -10
4 -10 10 0 25 -8 33 -18 8 -9 12 -12 9 -5 -4 6 -2 14 4 18 6 3 10 -4 10 -17 0
-13 3 -18 8 -12 9 15 41 14 36 -1 -3 -6 2 -12 11 -12 9 0 14 6 11 14 -3 8 -1
11 4 8 6 -3 10 -13 10 -22 0 -11 6 -14 21 -10 16 4 18 3 8 -9 -16 -19 1 -18
31 3 18 12 22 13 14 3 -9 -12 -7 -19 6 -33 18 -18 18 -18 29 0 8 14 11 15 12
3 1 -8 1 -19 0 -23 -1 -5 3 -6 9 -2 6 3 8 12 4 18 -3 7 1 4 9 -5 15 -19 33
-25 22 -9 -3 5 0 13 6 17 8 4 9 3 5 -4 -4 -6 6 -18 23 -26 16 -9 31 -19 33
-23 3 -5 3 -1 1 7 -2 10 2 8 12 -4 14 -19 15 -19 15 -2 0 13 3 16 13 9 6 -6
20 -9 30 -8 10 2 17 -3 17 -11 0 -9 4 -12 10 -9 5 3 10 1 10 -4 0 -6 4 -11 10
-11 5 0 6 8 3 18 -7 16 -6 16 11 -1 10 -9 22 -15 27 -12 5 4 6 0 3 -8 -3 -8 1
-14 10 -14 8 0 13 4 10 8 -2 4 0 11 6 14 6 4 9 1 8 -5 -2 -6 12 -17 30 -25 18
-8 30 -10 27 -5 -3 6 1 7 9 4 9 -3 14 -10 11 -14 -3 -5 4 -6 15 -3 17 5 18 8
8 22 -8 10 -5 10 10 -3 22 -19 30 -32 13 -21 -5 3 -13 0 -17 -7 -4 -7 -4 -10
1 -6 4 4 14 3 22 -4 11 -9 13 -8 11 1 -2 8 5 15 15 16 15 3 16 1 6 -11 -6 -8
-9 -17 -5 -21 3 -3 6 -1 6 6 0 8 8 11 20 8 11 -3 18 -1 15 3 -3 5 -1 12 5 15
6 4 9 1 8 -7 -2 -7 4 -12 14 -10 9 1 20 -3 24 -9 4 -8 3 -9 -4 -5 -18 11 -14
0 5 -15 10 -8 14 -9 10 -2 -4 6 -3 14 3 18 5 3 10 -1 10 -9 0 -9 5 -16 11 -16
6 0 9 7 6 14 -4 10 -1 13 8 9 8 -3 12 -10 8 -16 -3 -5 -1 -7 5 -3 6 3 13 2 17
-4 8 -13 25 -13 25 1 0 5 -4 8 -8 5 -4 -2 -14 5 -22 17 -12 20 -12 21 2 9 9
-7 22 -11 29 -10 8 2 13 -4 13 -13 -1 -14 4 -15 27 -9 24 7 31 5 40 -11 5 -11
15 -17 21 -13 18 11 70 6 79 -8 5 -7 7 -20 4 -28 -4 -11 -1 -10 8 2 8 10 18
14 22 10 5 -4 5 -1 1 6 -6 11 0 14 20 11 4 0 11 5 15 13 6 9 9 9 9 1 0 -6 9
-10 20 -8 11 2 20 -1 20 -7 0 -6 3 -8 6 -5 4 3 15 2 25 -3 12 -7 20 -7 24 0 3
5 11 10 17 10 5 0 0 -9 -13 -19 -20 -16 -22 -22 -11 -33 11 -11 12 -10 7 3 -5
12 2 20 25 28 27 9 31 8 26 -5 -3 -8 -2 -13 3 -9 5 3 12 -1 15 -7 3 -7 3 0 1
16 -4 26 -3 27 13 13 9 -8 23 -12 30 -10 6 3 12 -1 12 -9 0 -7 9 -19 20 -26
20 -12 21 -12 5 12 -16 25 -16 25 7 20 12 -3 29 -6 36 -6 6 -1 12 -5 12 -10 0
-11 -7 -10 -31 2 -10 6 -19 8 -19 6 0 -7 56 -36 67 -36 4 0 2 4 -4 8 -10 7
-10 12 0 26 12 17 14 17 28 -1 13 -16 13 -17 -3 -4 -10 7 -18 9 -18 3 0 -14
28 -23 36 -11 3 6 11 6 17 1 7 -4 19 -8 27 -7 8 0 19 -4 23 -10 5 -5 6 1 3 15
-3 14 -3 20 0 13 3 -7 12 -9 20 -6 8 3 14 0 14 -7 0 -6 -4 -8 -10 -5 -5 3 -10
1 -10 -5 0 -21 20 -6 42 30 l20 35 -21 -25 c-11 -14 -21 -19 -21 -12 0 7 -5
10 -12 6 -7 -4 -8 -3 -4 5 4 6 12 8 18 5 6 -4 8 1 3 15 -4 13 -2 21 5 21 6 0
9 -4 6 -9 -4 -5 4 -7 16 -3 22 5 22 6 -5 15 -33 11 -35 34 -4 47 18 7 18 9 4
9 -10 1 -15 6 -12 11 4 6 11 7 17 4 7 -4 8 -2 4 5 -4 6 -12 9 -17 6 -5 -4 -9
1 -9 9 0 8 -4 18 -10 21 -6 3 -7 -1 -4 -9 4 -10 1 -16 -7 -16 -7 0 -9 3 -6 7
4 3 2 12 -5 20 -9 11 -8 13 3 11 8 -2 15 7 17 20 2 12 -2 22 -9 22 -8 0 -8 4
1 15 7 9 9 19 5 23 -4 4 -10 1 -12 -6 -3 -6 -9 -9 -15 -6 -6 4 -1 12 13 20 14
8 18 13 10 14 -11 0 -9 4 5 15 18 14 18 15 0 8 -13 -4 -17 -2 -14 8 3 8 0 23
-5 34 -6 11 -12 25 -13 31 -2 13 27 15 43 2 8 -7 11 -4 10 11 -1 17 -6 20 -32
16 -22 -4 -26 -3 -15 5 11 7 11 10 2 10 -7 0 -11 4 -7 9 3 5 1 12 -5 16 -5 3
-10 12 -10 18 0 8 3 8 9 -2 6 -9 11 -10 15 -2 4 6 12 8 18 5 6 -4 9 -1 6 7 -3
8 -14 12 -24 11 -10 -2 -16 -1 -13 2 11 11 50 16 44 5 -4 -5 -1 -9 5 -9 6 0 8
-5 5 -11 -4 -6 0 -9 11 -7 15 2 19 -3 18 -25 -1 -22 2 -27 15 -22 8 3 12 3 8
-1 -4 -4 -2 -13 4 -21 11 -13 1 -18 -24 -14 -5 1 -7 -4 -4 -11 2 -7 11 -11 18
-9 8 2 20 4 27 4 15 0 15 3 1 28 -8 15 -7 24 3 36 11 14 10 15 -10 9 -14 -5
-22 -3 -22 4 0 6 5 8 10 5 6 -3 10 -1 10 4 0 6 -4 11 -9 11 -5 0 -8 11 -8 24
0 24 0 24 21 5 18 -18 22 -18 32 -4 6 8 15 15 19 15 5 0 0 -9 -10 -20 -10 -11
-13 -20 -8 -20 6 0 16 7 23 15 11 14 15 14 37 -1 23 -14 26 -14 44 2 15 14 21
14 34 4 12 -10 16 -9 21 4 3 9 11 16 17 16 5 0 2 -9 -8 -20 -10 -11 -13 -20
-7 -20 6 0 14 4 17 10 8 13 25 13 25 0 0 -6 -3 -9 -7 -8 -13 2 -43 -14 -43
-23 0 -6 10 -4 22 2 18 9 24 8 34 -6 11 -15 13 -13 12 14 -1 21 -9 39 -26 51
-14 11 -21 20 -17 20 5 0 17 -7 27 -17 16 -14 18 -14 18 0 0 8 -3 17 -7 20 -5
2 -2 2 6 0 7 -2 20 2 27 8 8 6 14 8 14 4 0 -4 -8 -14 -17 -22 -10 -8 -13 -12
-6 -9 6 4 15 2 18 -4 4 -6 3 -10 -2 -9 -4 1 -15 1 -23 0 -13 -1 -13 -2 0 -11
12 -8 13 -11 1 -19 -11 -7 -11 -9 0 -13 8 -3 14 -16 14 -31 1 -14 -2 -24 -6
-21 -4 2 -10 -3 -13 -12 -5 -12 -2 -15 11 -10 17 6 17 5 1 -8 -25 -19 -22 -29
5 -16 21 11 21 10 3 -4 -10 -9 -22 -13 -27 -11 -4 3 -10 1 -14 -5 -3 -5 -2
-10 3 -10 8 0 13 -11 22 -48 1 -4 7 -14 13 -22 11 -13 10 -13 -6 -1 -17 14
-18 13 -15 -5 1 -10 8 -23 13 -27 6 -5 2 -6 -8 -3 -15 5 -17 2 -12 -14 7 -23
-12 -63 -26 -55 -5 4 -9 1 -9 -4 0 -16 16 -13 34 4 20 21 32 19 14 -2 -8 -10
-13 -28 -12 -40 0 -12 -3 -20 -8 -17 -10 7 -6 -35 5 -53 5 -7 4 -13 -2 -13 -5
0 -13 4 -16 10 -3 5 -11 10 -18 10 -6 0 -3 -6 8 -13 12 -10 14 -16 7 -21 -7
-4 -12 -13 -12 -19 0 -9 2 -9 8 0 13 20 46 20 50 -1 3 -11 0 -16 -7 -11 -6 3
-9 11 -6 16 3 5 -1 6 -10 3 -9 -4 -15 -7 -13 -8 2 -1 11 -8 20 -15 16 -12 19
-10 27 10 9 21 10 22 11 4 1 -19 1 -19 14 -2 12 16 14 16 20 2 3 -9 2 -13 -4
-10 -6 3 -10 1 -10 -4 0 -14 17 -14 26 0 4 8 9 7 16 -2 6 -10 7 -7 3 9 -4 13
-2 22 4 22 6 0 11 -7 11 -15 0 -9 6 -12 16 -8 13 5 13 7 2 14 -7 5 -9 9 -5 9
4 0 18 -7 31 -15 20 -13 24 -13 42 1 18 15 18 15 -2 5 -15 -7 -24 -7 -32 1
-15 15 -15 28 -2 28 6 0 9 -6 8 -13 -2 -6 2 -11 7 -10 29 5 41 9 47 18 5 6 8
4 8 -5 0 -13 1 -13 10 0 8 12 10 12 10 1 0 -11 3 -11 17 0 11 10 14 10 9 2 -4
-8 -2 -13 4 -13 6 0 8 -6 5 -12 -4 -7 2 -3 13 9 24 28 38 29 51 6 6 -10 11
-13 11 -6 0 15 23 11 46 -7 18 -14 18 -14 3 5 -28 36 -34 51 -10 31 22 -20 22
-20 16 0 -5 14 -3 13 7 -4 8 -12 17 -19 21 -16 10 10 9 26 -1 20 -5 -3 -9 1
-9 9 0 11 4 12 13 4 8 -7 13 -6 16 3 3 8 7 6 11 -6 4 -9 3 -15 -1 -12 -5 3 -9
-1 -9 -8 0 -8 6 -12 14 -9 11 4 16 15 15 33 0 3 15 5 34 4 27 -2 34 1 30 13
-3 8 -1 11 5 8 5 -4 7 -16 4 -28 -2 -12 -2 -16 1 -9 5 10 9 10 22 0 12 -10 14
-10 8 0 -4 7 -2 12 4 12 7 0 10 6 7 13 -4 10 2 13 19 9 13 -2 22 -7 20 -11 -3
-4 4 -7 14 -7 14 0 16 3 8 13 -6 8 -8 16 -4 20 3 3 6 1 6 -6 0 -9 5 -9 21 0
17 9 23 8 30 -2 7 -11 9 -11 9 1 0 9 3 11 8 5 9 -12 64 -16 56 -4 -3 5 2 9 10
9 9 0 16 5 16 11 0 7 -9 6 -23 -4 -17 -11 -28 -12 -38 -5 -11 8 -11 9 2 5 9
-3 26 3 37 13 17 16 21 17 26 5 5 -15 28 -22 24 -7 -2 4 2 9 7 10 6 2 16 9 24
15 12 9 13 9 7 -1 -4 -6 -3 -12 3 -12 6 0 8 -8 5 -18 -5 -13 -4 -14 4 -3 5 7
16 18 23 23 11 8 10 8 -4 4 -11 -4 -16 -2 -12 5 4 6 13 8 20 5 8 -3 16 0 19 7
3 7 4 3 1 -8 -4 -17 0 -21 19 -21 14 0 22 4 20 8 -3 4 2 8 11 8 10 0 13 5 9
12 -5 8 -2 9 9 5 10 -3 17 -2 17 3 0 5 7 6 17 3 12 -5 14 -3 8 8 -7 11 -5 11
10 -1 11 -9 16 -10 11 -2 -4 6 -3 12 3 12 5 0 11 -6 14 -12 3 -10 8 -10 18 1
12 12 12 13 -1 7 -8 -4 -2 3 14 15 37 29 62 33 70 13 3 -8 11 -12 16 -9 8 5 7
12 -2 23 -12 13 -10 14 9 4 28 -16 36 -15 30 1 -3 8 1 14 9 14 7 0 10 -5 7
-11 -4 -6 1 -5 10 3 10 8 20 11 24 8 9 -9 34 13 27 24 -3 5 6 5 20 0 26 -10
54 7 38 24 -4 5 -1 5 6 1 7 -4 10 -12 7 -17 -4 -5 -1 -9 4 -9 10 0 16 21 12
43 -1 4 10 0 23 -8 18 -12 26 -13 32 -4 4 7 3 9 -4 5 -6 -3 -14 -1 -18 5 -4 8
-3 9 4 5 6 -4 20 2 32 14 11 11 20 16 20 11 0 -5 9 -11 20 -14 17 -4 18 -2 9
15 -10 18 -9 18 10 8 16 -8 21 -8 21 2 0 6 7 3 15 -8 12 -15 14 -16 9 -2 -5
13 -1 16 15 13 13 -2 19 0 15 7 -4 7 2 8 17 3 24 -7 24 -7 4 9 -18 15 -18 15
-1 9 12 -4 22 0 28 10 5 10 14 17 21 17 7 0 6 -4 -3 -11 -12 -8 -11 -9 5 -7
11 2 25 12 32 23 6 11 20 20 30 20 11 0 17 6 15 15 -2 10 6 6 24 -10 16 -14
23 -17 15 -8 -17 23 -6 41 19 28 28 -15 37 -12 14 5 -18 14 -18 14 4 10 20 -4
22 -2 11 11 -6 8 -9 17 -5 21 3 3 6 1 6 -6 0 -7 6 -11 14 -8 7 3 19 0 26 -6
10 -10 12 -8 6 7 -6 17 -5 17 10 5 15 -12 16 -11 9 11 -4 14 -4 22 0 17 5 -4
17 1 28 10 22 20 26 20 38 1 7 -10 9 -10 9 2 0 14 28 38 41 36 4 -1 16 7 27
17 13 12 22 15 27 7 3 -6 1 -9 -6 -8 -6 2 -14 -4 -16 -12 -4 -12 -3 -12 5 -2
5 8 13 14 18 15 5 1 7 9 6 16 -3 13 -1 13 12 2 9 -8 19 -11 23 -7 3 3 0 6 -7
6 -9 0 -8 6 5 20 9 10 20 19 24 18 31 -4 61 4 55 14 -5 8 -2 9 11 4 15 -5 16
-4 6 8 -11 13 -9 15 9 11 15 -3 20 0 17 9 -4 9 3 12 21 9 19 -3 23 -2 14 5
-11 7 -11 10 2 15 8 3 17 1 20 -6 4 -12 10 19 7 37 -1 5 4 4 13 -3 16 -14 32
1 20 20 -4 8 0 8 15 0 17 -10 21 -9 21 5 0 13 3 14 14 5 12 -10 19 -6 37 18
13 17 29 31 36 31 7 0 13 5 13 11 0 6 8 9 19 6 12 -3 18 1 17 11 0 8 5 17 12
19 8 3 10 -2 6 -14 -5 -17 -5 -17 6 0 6 9 15 15 21 12 5 -4 6 2 2 11 -4 12 -3
15 5 10 8 -4 10 -2 6 7 -3 8 0 18 7 23 8 4 10 3 5 -4 -11 -18 3 -14 26 8 12
11 18 20 13 20 -4 0 0 9 10 20 20 22 35 26 35 9 0 -5 -4 -8 -9 -5 -5 3 -14 -1
-20 -8 -9 -10 -9 -16 -1 -21 6 -4 9 -1 8 6 -2 7 2 13 8 14 15 0 44 31 37 39
-4 3 -1 6 5 6 7 0 12 -5 12 -11 0 -5 5 -7 11 -3 8 5 8 9 -1 14 -9 5 -9 9 -1
14 6 4 8 12 5 18 -4 7 -2 8 5 4 6 -4 9 -12 5 -17 -3 -6 3 -5 15 3 12 7 19 18
17 24 -8 21 15 34 38 22 12 -6 18 -7 14 -3 -4 5 -2 15 5 24 11 14 10 15 -8 1
-18 -14 -19 -14 -7 2 8 9 19 15 25 12 7 -2 18 10 26 26 7 17 16 29 19 26 2 -3
-1 -14 -9 -23 -13 -17 -13 -17 7 0 11 9 25 14 29 10 5 -5 3 1 -5 11 -14 18
-14 19 8 7 13 -7 26 -10 30 -7 3 3 1 6 -5 6 -6 0 -13 6 -16 14 -4 9 2 12 19
10 13 -1 22 2 18 7 -3 5 -9 7 -14 4 -5 -3 -11 -1 -15 4 -3 6 3 8 15 6 11 -2
20 0 20 6 0 5 5 9 11 9 5 0 7 -5 3 -12 -4 -6 -3 -8 4 -4 6 3 9 15 7 25 -2 12
2 18 13 17 9 0 16 5 14 12 -1 8 2 11 9 6 8 -5 10 -2 6 9 -4 12 0 14 18 11 28
-5 62 36 49 58 -5 8 -1 8 11 -2 10 -8 16 -10 12 -3 -8 13 22 68 31 59 3 -3 -1
-12 -8 -21 -8 -10 -9 -15 -1 -15 6 0 11 5 11 11 0 5 4 8 9 5 5 -4 7 3 4 14 -4
16 -2 19 11 14 9 -3 16 -1 16 5 0 6 -4 11 -10 11 -5 0 -10 5 -10 10 0 7 6 7
19 0 16 -8 21 -6 26 10 4 11 11 17 17 14 6 -4 5 3 -2 16 -11 20 -10 21 8 11
18 -10 20 -8 17 14 -2 22 0 23 13 13 14 -12 14 -10 2 12 -12 22 -11 23 2 13
18 -15 38 1 38 30 0 10 5 15 10 12 9 -6 14 8 11 28 -1 5 3 6 9 2 6 -3 8 -10 6
-14 -3 -4 1 -8 9 -8 9 0 11 5 7 11 -12 16 -9 30 11 50 9 10 17 21 17 26 0 5 8
6 18 3 15 -6 16 -5 2 12 -14 17 -14 18 7 6 19 -10 22 -9 17 4 -4 8 -1 21 5 29
6 7 7 16 3 21 -4 4 4 2 17 -5 15 -8 21 -8 17 -1 -4 6 -2 11 4 11 6 0 10 7 8
16 -2 10 9 24 27 34 20 11 29 23 27 36 -2 10 0 16 4 11 4 -4 15 0 25 9 15 13
16 21 7 38 -6 11 -7 18 -3 14 5 -4 15 -2 24 5 14 10 14 10 3 -5 -10 -12 -10
-18 -1 -24 7 -4 9 -3 5 4 -3 6 -2 13 2 16 5 3 8 17 6 32 -2 20 0 24 9 15 6 -6
16 -11 22 -11 5 0 4 4 -4 9 -12 7 -12 13 -3 24 7 7 8 18 4 22 -4 5 -2 6 3 2 6
-3 19 2 30 10 19 15 19 15 -3 8 l-24 -7 21 21 c23 23 36 28 25 9 -4 -7 -3 -9
1 -5 13 11 15 38 3 31 -7 -4 -8 -2 -4 4 4 7 14 12 22 12 12 0 19 19 15 43 -1
4 6 10 14 13 8 3 12 11 8 17 -3 6 -1 7 5 3 7 -4 12 -2 12 4 0 6 5 8 13 4 9 -6
9 -5 0 8 -13 15 -8 28 9 28 5 0 6 -5 2 -12 -4 -7 -3 -8 5 -4 6 4 8 12 5 18 -5
7 -2 9 7 6 9 -4 15 1 16 11 1 9 4 29 6 45 1 16 9 31 17 34 13 3 13 2 0 -8 -13
-10 -13 -11 0 -7 8 2 15 9 15 15 0 6 9 22 20 34 22 26 29 51 12 42 -7 -3 -3 2
8 11 11 9 20 24 20 33 1 9 7 16 13 14 10 -2 10 3 1 20 l-12 23 23 -20 23 -20
-17 27 c-17 27 -17 27 4 23 19 -4 20 -2 8 12 -8 11 -9 14 -1 10 7 -5 21 1 33
13 14 14 16 20 6 20 -8 0 -16 -6 -19 -12 -2 -7 -8 -10 -11 -6 -10 9 30 48 40
40 5 -4 3 0 -4 10 -10 12 -10 18 -1 24 8 4 9 3 5 -4 -4 -7 -2 -12 5 -12 7 0 9
10 6 25 -3 18 1 29 15 36 15 8 17 13 7 25 -11 13 -6 18 14 15 5 -1 7 9 6 21
-2 13 0 29 4 36 5 6 5 12 2 12 -4 0 1 7 9 16 9 8 13 20 10 26 -4 7 -2 8 4 4 9
-5 8 -14 -2 -35 -12 -23 -12 -28 -1 -28 7 0 11 6 8 12 -2 7 3 20 12 28 9 9 16
19 15 22 0 3 1 6 1 8 1 1 3 18 4 37 1 25 6 35 17 34 13 -1 14 4 8 28 -7 23 -5
31 11 41 10 6 19 18 19 25 0 18 26 43 36 34 5 -4 2 1 -5 10 -7 9 -9 23 -5 29
4 7 3 9 -3 6 -5 -3 -10 0 -10 7 0 8 7 12 15 8 11 -4 13 -1 7 8 -6 9 -4 12 6 8
11 -4 15 1 14 21 0 14 5 31 10 37 6 7 10 26 9 43 -1 17 2 29 6 26 4 -3 11 2
14 11 4 10 2 13 -6 8 -7 -4 -8 -3 -4 4 4 7 15 12 24 13 11 0 13 2 4 6 -10 4
-10 8 0 21 11 13 10 15 -5 9 -16 -6 -16 -5 -2 17 8 12 12 27 8 31 -5 5 1 3 12
-5 19 -15 19 -15 1 14 -10 16 -13 25 -7 22 16 -10 25 22 12 38 -13 16 -4 25
20 21 9 -2 16 3 16 10 0 8 -7 11 -16 7 -13 -5 -14 -3 -4 10 7 8 10 18 6 22 -4
4 0 4 10 0 19 -7 24 11 5 20 -7 4 -2 4 12 2 21 -4 23 -3 9 7 -15 11 -15 14 -1
27 11 9 12 15 4 18 -7 2 -12 8 -12 13 0 6 6 7 13 3 9 -5 9 -4 0 6 -16 17 -5
40 15 34 9 -3 6 1 -7 9 l-23 14 22 6 c18 5 21 9 12 19 -14 18 -13 29 9 60 23
32 24 38 2 39 -15 0 -15 2 2 8 11 5 23 6 28 4 4 -2 -2 12 -13 31 -20 36 -20
36 0 48 22 14 28 33 8 23 -7 -4 -2 2 11 13 23 19 24 21 8 37 -20 20 -23 32 -4
16 10 -8 14 -7 14 4 0 8 -5 15 -11 15 -6 0 -4 4 4 9 8 6 18 7 22 5 4 -3 5 2 1
11 -4 13 -7 14 -14 3 -7 -11 -10 -10 -21 1 -7 8 -8 11 -2 8 13 -8 27 20 18 34
-3 5 3 9 13 10 16 0 16 1 -2 9 -11 5 -14 9 -7 9 7 1 11 5 8 10 -4 5 0 12 6 14
10 4 10 6 0 6 -9 1 -9 7 3 24 8 13 12 27 9 30 -4 4 -2 12 4 19 19 23 17 29 -8
45 -14 8 -17 12 -6 9 15 -5 18 -2 13 19 -3 19 -1 25 9 21 8 -3 11 0 7 10 -3 7
-10 14 -17 15 -6 0 -2 4 9 9 16 7 16 9 4 9 -11 1 -16 9 -15 25 1 20 4 22 15
13 12 -9 13 -9 7 1 -4 7 -2 21 5 30 11 14 11 15 -1 5 -18 -17 -38 -17 -22 -1
13 13 16 32 4 24 -4 -2 -8 4 -8 14 0 13 4 16 11 10 8 -6 10 0 9 21 -1 17 -5
33 -8 36 -3 4 1 17 10 31 9 14 11 21 4 17 -8 -5 -11 -3 -8 6 3 8 11 13 17 11
7 -1 10 2 6 8 -3 6 -12 8 -18 4 -7 -3 -3 2 8 12 15 13 16 15 3 11 -12 -4 -16
-1 -15 14 1 11 7 17 14 15 7 -3 10 1 6 9 -3 8 -10 12 -16 8 -5 -3 -7 -1 -3 5
3 5 3 12 -1 15 -5 2 -2 2 5 1 6 -2 12 1 12 6 0 6 -4 10 -9 10 -6 0 -8 9 -6 20
2 11 -1 22 -7 26 -6 4 -1 15 14 28 13 11 19 18 14 14 -18 -15 -28 -8 -15 9 8
10 9 14 2 10 -6 -4 -14 -3 -17 2 -4 5 -2 12 3 15 5 4 7 18 5 33 -3 15 0 30 8
34 10 7 10 9 -2 9 -13 0 -13 1 0 10 13 9 13 10 0 10 -13 0 -13 1 0 10 13 8 13
10 -1 10 -9 0 -16 7 -16 15 0 11 3 12 14 3 11 -9 13 -8 11 3 -2 8 -6 17 -10
20 -10 7 -19 101 -10 95 4 -2 8 7 9 21 1 19 -1 22 -8 12 -10 -16 -10 -19 -13
83 -1 37 1 65 4 63 3 -2 6 5 6 16 0 10 -5 18 -11 17 -5 -2 -11 2 -11 7 -1 6 2
9 8 7 5 -1 7 2 3 8 -4 6 -1 18 7 27 7 9 8 14 3 11 -6 -4 -19 0 -30 8 -10 8
-13 14 -7 14 7 0 12 5 12 11 0 5 -6 7 -13 3 -9 -6 -9 -4 1 7 6 7 12 16 12 21
0 4 -6 6 -12 4 -7 -1 -10 -1 -5 1 4 3 7 16 7 29 0 17 -4 23 -12 18 -6 -4 -8
-3 -4 4 3 5 1 12 -6 14 -7 3 -5 7 6 11 11 5 15 3 10 -5 -5 -7 -3 -8 5 -3 9 5
9 11 3 17 -6 6 -8 17 -5 26 5 11 3 13 -7 7 -9 -6 -11 -4 -5 6 12 18 14 49 3
43 -13 -8 -10 10 5 25 10 11 9 12 -2 6 -11 -6 -13 -4 -8 8 3 8 -3 25 -14 38
-22 26 -25 35 -6 23 7 -5 5 -1 -5 8 -17 16 -17 17 -1 21 17 4 17 5 1 6 -15 1
-16 5 -8 27 11 29 -4 59 -23 47 -6 -3 -7 -1 -3 6 4 6 11 9 16 6 16 -10 20 12
5 25 -8 7 -12 16 -9 21 3 5 -3 9 -12 9 -16 0 -16 -1 1 -20 17 -19 17 -20 1
-20 -9 0 -15 4 -11 9 3 5 1 13 -5 16 -8 5 -7 11 1 21 11 13 6 18 -14 15 -5 -1
-6 3 -2 9 3 6 10 8 15 5 5 -3 12 -1 15 5 4 6 3 10 -2 9 -20 -4 -24 2 -12 18
12 14 12 16 0 8 -11 -6 -13 -4 -9 7 4 8 2 21 -2 28 -5 8 -4 23 2 34 10 18 9
19 -3 9 -12 -10 -17 -8 -28 9 -12 19 -11 20 5 14 17 -6 17 -6 1 12 -19 21 -22
52 -7 70 6 6 7 10 4 7 -4 -3 -15 5 -25 17 -23 26 -24 35 -2 17 15 -13 15 -12
2 11 -8 13 -21 30 -29 37 -13 11 -12 12 4 13 20 0 20 0 0 16 -10 8 -13 12 -6
9 11 -6 12 -3 3 14 -7 11 -14 21 -17 21 -3 0 -2 -4 1 -10 3 -6 -1 -7 -10 -3
-13 5 -14 7 -3 14 11 8 11 10 -1 18 -9 6 -10 11 -2 15 8 5 7 13 -3 28 -8 11
-12 28 -9 37 5 13 2 12 -18 -4 -17 -14 -20 -15 -10 -3 7 9 10 22 6 27 -3 6 0
9 7 8 7 -2 10 -2 6 0 -5 3 -8 10 -8 17 0 7 -10 18 -22 25 -13 6 -16 10 -7 7 9
-2 16 2 16 10 0 7 -3 11 -7 9 -3 -2 -12 0 -20 6 -13 7 -12 9 3 9 9 0 17 5 17
11 0 6 -6 9 -14 6 -14 -6 -26 12 -26 39 0 9 5 12 11 8 8 -4 8 0 0 15 -11 19
-23 26 -44 22 -5 -1 -6 3 -2 8 3 6 12 8 20 4 8 -3 15 0 15 7 0 6 -4 9 -9 6 -5
-3 -20 3 -32 15 -13 11 -19 18 -13 15 7 -3 14 3 17 15 4 16 3 18 -9 8 -11 -9
-14 -7 -14 10 0 15 4 20 13 15 6 -4 -5 10 -26 30 -30 29 -36 40 -28 54 6 12 6
23 -1 33 -8 11 -9 11 -4 -3 3 -10 1 -20 -5 -23 -5 -4 -9 -3 -8 2 5 27 -3 53
-16 53 -8 0 -15 4 -15 10 0 5 8 7 18 3 14 -5 13 -3 -3 10 -11 8 -24 13 -29 10
-5 -4 -6 -1 -2 5 4 6 14 9 24 6 9 -3 7 1 -6 8 -12 8 -19 17 -16 21 4 4 2 7 -5
7 -8 0 -11 8 -8 20 3 11 1 20 -5 20 -5 0 -6 6 -2 13 6 10 4 10 -7 0 -7 -7 -18
-13 -24 -13 -5 0 -4 4 4 9 11 7 9 13 -7 29 -13 13 -17 24 -11 28 6 3 2 12 -11
21 -13 9 -20 22 -17 33 2 10 0 24 -5 31 -8 11 -9 10 -4 -3 3 -10 2 -19 -2 -22
-4 -2 -9 7 -10 22 -1 15 -7 29 -12 30 -6 2 -8 8 -4 13 3 5 -3 9 -13 9 -15 0
-15 2 -3 9 8 6 19 7 25 3 5 -3 4 2 -4 11 -15 18 -26 23 -16 7 3 -5 -1 -10 -9
-10 -9 0 -13 7 -11 20 2 13 -2 20 -11 20 -8 0 -12 -4 -9 -10 3 -5 1 -10 -4
-10 -14 0 -14 17 0 26 8 4 3 12 -12 21 -13 8 -16 12 -7 9 12 -3 15 -1 11 10
-3 8 -12 13 -19 10 -7 -3 -16 0 -20 6 -4 7 -3 8 4 4 19 -11 14 5 -5 21 -10 8
-13 12 -6 9 6 -4 15 -1 19 5 4 7 3 9 -3 6 -6 -4 -16 7 -23 23 -7 17 -19 30
-26 30 -8 0 -14 5 -14 11 0 5 5 7 12 3 7 -4 8 -3 4 5 -4 6 -11 9 -15 7 -4 -3
-17 11 -28 32 -13 25 -26 37 -40 36 -13 0 -19 5 -16 12 2 6 -1 15 -7 19 -8 5
-8 11 1 21 7 9 8 14 3 13 -19 -3 -49 3 -36 8 20 8 14 33 -8 33 -11 0 -20 7
-20 16 0 9 -5 12 -12 8 -10 -6 -10 -5 -1 8 16 19 5 32 -14 16 -12 -10 -14 -8
-11 8 2 11 -2 18 -10 16 -10 -2 -10 2 -2 18 9 16 8 18 -5 14 -23 -9 -43 13
-41 44 1 21 -3 28 -18 30 -10 0 -24 6 -30 12 -8 8 -6 10 9 5 16 -4 15 -3 -2 6
-13 7 -23 16 -23 21 0 5 5 6 10 3 6 -3 10 -1 10 5 0 7 -8 9 -20 5 -14 -5 -20
-2 -20 9 0 9 -5 16 -11 16 -5 0 -7 4 -4 10 4 6 -1 7 -11 3 -14 -5 -16 -2 -10
23 5 21 4 25 -4 14 -9 -13 -11 -13 -20 0 -5 8 -10 11 -10 5 0 -5 -7 1 -16 13
-8 12 -12 27 -8 34 5 7 3 8 -6 3 -10 -6 -12 -4 -7 7 4 12 0 14 -16 10 -19 -5
-20 -3 -9 10 10 13 9 15 -11 13 -19 -2 -23 2 -23 22 1 17 -8 31 -24 40 l-25
15 23 -19 c21 -18 22 -19 3 -19 -11 0 -19 3 -19 6 1 19 -17 50 -33 55 -10 4
-19 11 -19 16 0 6 5 7 12 3 7 -4 8 -3 4 4 -4 7 -14 12 -22 12 -8 0 -12 -4 -9
-10 10 -16 -1 -11 -16 7 -10 11 -10 14 -1 9 6 -4 12 -3 12 1 0 14 -40 34 -53
26 -7 -4 -7 0 2 10 11 13 11 17 1 17 -8 0 -10 3 -7 7 4 3 2 12 -4 20 -9 10
-15 10 -25 2 -11 -9 -14 -7 -15 7 -1 11 -1 22 0 26 0 5 -2 8 -7 7 -23 -3 -52
16 -53 35 -1 19 -2 18 -8 -4 -7 -25 -7 -25 -14 6 -4 23 -16 36 -44 50 -21 10
-41 17 -45 16 -5 -1 -7 1 -7 6 3 19 -2 33 -10 28 -14 -9 -34 22 -27 41 6 15 5
16 -5 6 -19 -19 -39 -16 -39 5 0 15 2 15 11 2 9 -12 10 -12 5 3 -3 10 -6 21
-6 25 0 3 -7 -3 -15 -14 -14 -19 -14 -19 -11 2 3 12 -1 21 -10 22 -8 1 -21 3
-29 4 -10 1 -14 8 -10 22 3 12 2 15 -1 9 -8 -19 -27 -16 -20 3 3 8 2 12 -4 9
-6 -3 -10 -1 -10 6 0 8 -5 8 -17 -2 -10 -7 -15 -9 -11 -5 4 5 -2 17 -14 27
-13 12 -16 19 -8 19 7 0 11 3 7 6 -3 3 -12 2 -19 -2 -21 -14 -35 -13 -35 2 0
9 4 11 12 4 8 -7 12 -5 12 4 0 15 -14 16 -35 2 -9 -5 -13 -3 -11 5 3 29 -1 38
-18 32 -11 -4 -14 -3 -9 5 4 7 2 12 -4 12 -6 0 -9 4 -6 8 2 4 -4 8 -14 8 -18
0 -18 -1 -2 -21 17 -20 17 -20 -6 -1 -15 13 -21 26 -17 40 3 12 2 15 -1 9 -3
-7 -10 -13 -15 -13 -6 0 -8 4 -4 9 3 5 0 13 -6 17 -8 4 -9 3 -5 -4 4 -7 2 -12
-3 -12 -6 0 -11 5 -11 11 0 6 -7 8 -16 5 -14 -6 -15 -4 -4 9 7 9 9 15 4 14
-21 -4 -35 2 -29 11 5 9 -32 16 -58 11 -5 -1 -6 3 -2 8 3 6 13 8 23 5 14 -5
14 -4 3 4 -10 7 -21 7 -35 0 -20 -10 -20 -10 -6 7 14 17 14 18 -7 6 -20 -10
-22 -9 -16 5 4 11 2 15 -4 11 -6 -4 -14 0 -17 9 -3 9 -12 14 -20 11 -7 -3 -19
0 -25 6 -8 8 -11 7 -11 -3 0 -7 -3 -11 -6 -8 -3 4 0 17 7 30 12 23 12 23 -9 4
-21 -18 -21 -18 -17 2 2 14 -2 21 -13 21 -44 -1 -79 22 -66 43 3 4 -2 5 -10 2
-9 -3 -13 -10 -10 -15 3 -5 0 -9 -5 -9 -14 0 -14 13 0 27 7 7 3 11 -15 11 -16
0 -23 -5 -19 -12 3 -6 2 -7 -2 -3 -13 12 -15 37 -2 37 5 0 7 3 4 6 -4 4 -13 1
-21 -5 -10 -8 -16 -9 -21 -1 -3 6 -10 8 -15 5 -4 -3 -14 3 -21 13 -13 15 -12
16 3 4 12 -10 18 -10 24 -1 4 7 3 9 -4 5 -6 -3 -14 -2 -17 4 -5 8 -12 7 -23
-2 -12 -10 -14 -10 -8 0 4 7 2 12 -8 12 -8 0 -17 -6 -20 -12 -3 -7 -3 -3 0 9
4 18 2 22 -10 17 -15 -6 -22 11 -17 39 1 4 -8 2 -18 -5 -11 -7 -17 -16 -15
-20 9 -15 -3 -8 -17 9 -12 15 -12 16 1 8 13 -8 13 -7 1 8 -9 11 -21 15 -34 11
-14 -4 -17 -3 -12 6 6 9 2 9 -15 0 -21 -11 -22 -10 -16 6 4 10 4 15 0 12 -3
-4 -24 2 -46 13 -26 13 -50 18 -67 14 -17 -4 -21 -3 -12 4 16 10 5 35 -11 25
-8 -5 -9 -1 -5 10 4 10 3 15 -4 11 -5 -4 -7 -16 -3 -28 6 -20 6 -20 -10 -4
-10 9 -15 21 -12 26 3 5 -3 7 -14 4 -14 -4 -19 -1 -17 8 2 8 2 11 0 6 -3 -4
-10 -4 -15 -1 -7 4 -8 2 -4 -4 4 -7 2 -12 -3 -12 -6 0 -11 4 -11 9 0 5 -14 16
-30 25 -17 8 -27 10 -24 4 5 -7 2 -8 -5 -4 -7 5 -10 15 -7 23 3 8 1 11 -4 8
-6 -3 -10 -13 -10 -21 0 -8 -5 -14 -11 -14 -5 0 -7 5 -4 10 13 21 -15 37 -60
35 -38 -1 -42 0 -27 11 15 12 15 12 -4 8 -12 -3 -25 -1 -28 5 -5 8 -13 8 -29
-1 -20 -10 -21 -10 -8 6 12 14 12 16 -4 10 -11 -5 -16 -4 -12 3 3 5 0 10 -8
10 -8 0 -11 -5 -8 -10 3 -6 1 -7 -5 -3 -5 3 -13 0 -16 -6 -3 -7 -3 -3 0 9 5
22 -8 26 -33 10 -6 -4 -15 -2 -19 4 -5 8 -3 9 6 4 8 -5 11 -4 7 3 -4 5 -15 8
-26 5 -12 -3 -24 3 -35 18 -9 13 -16 18 -16 11 0 -6 -5 -12 -11 -12 -5 0 -7 5
-3 12 4 6 3 8 -4 4 -6 -3 -13 -2 -17 4 -10 17 -25 11 -35 -12 -7 -18 -9 -19
-9 -5 -1 9 -6 17 -12 17 -5 0 -8 3 -6 8 3 4 -14 7 -36 7 -47 0 -62 12 -44 35
11 13 10 13 -5 1 -10 -7 -15 -18 -11 -25 3 -6 -2 -4 -13 5 -10 8 -31 14 -46
13 -16 -2 -28 1 -28 6 0 10 -20 8 -39 -4 -10 -6 -12 -5 -7 2 4 7 1 12 -6 12
-10 0 -9 3 2 11 13 9 13 10 0 6 -8 -2 -15 -9 -15 -14 0 -20 -15 -27 -16 -7 -1
10 -1 22 -1 25 1 3 -6 6 -13 6 -10 0 -12 -4 -5 -12 7 -8 5 -12 -5 -12 -8 0
-15 5 -15 11 0 6 -5 4 -10 -4 -9 -13 -10 -13 -11 0 -1 8 -1 19 0 24 1 5 -4 4
-12 -2 -8 -7 -17 -9 -20 -5 -4 3 -7 1 -7 -6 0 -8 7 -11 18 -6 14 5 15 4 5 -6
-10 -10 -16 -10 -24 -2 -6 6 -17 10 -23 9 -6 -2 -8 -1 -3 1 15 9 6 20 -15 17
-13 -1 -23 -3 -23 -4 0 -1 -10 -3 -22 -4 -12 -1 -21 0 -19 3 2 3 -3 13 -12 21
-14 13 -15 12 -9 -3 3 -9 1 -19 -5 -23 -7 -5 -8 -2 -3 6 6 10 4 12 -9 7 -10
-4 -19 -1 -22 8 -4 8 -10 15 -16 15 -5 0 -6 -6 -2 -12 4 -7 -2 -4 -14 6 -21
18 -28 13 -23 -16 2 -13 -6 -9 -20 9 -8 9 -9 14 -3 10 6 -3 11 1 11 9 0 10 -4
11 -11 4 -14 -14 -69 -13 -85 3 -9 7 -11 7 -8 1 9 -15 -20 -27 -29 -12 -5 7
-2 8 7 3 8 -5 10 -4 6 0 -10 12 -38 15 -31 4 3 -5 0 -9 -5 -9 -6 0 -11 5 -11
11 0 8 -5 7 -15 -1 -9 -7 -18 -10 -22 -6 -4 3 1 12 11 19 16 12 16 13 -3 13
-11 0 -18 -3 -15 -7 2 -4 -3 -12 -10 -18 -10 -8 -16 -9 -21 -2 -8 14 -55 10
-55 -4 0 -5 -5 -3 -10 5 -5 8 -10 12 -10 7 0 -4 -15 0 -32 10 -36 19 -61 25
-54 14 3 -4 -3 -12 -13 -18 -14 -9 -18 -8 -18 3 0 7 4 11 9 8 4 -3 8 -1 8 3 0
5 -101 8 -224 8 -123 0 -224 -2 -224 -5 2 -23 -4 -40 -11 -36 -5 3 -8 14 -6
24 1 9 0 11 -2 5 -3 -7 -13 -13 -24 -13 -11 0 -30 -5 -42 -12 -20 -10 -21 -10
-8 6 11 13 12 19 2 29 -10 9 -11 8 -5 -7z m184 -9 c0 -5 -7 -7 -15 -3 -8 3
-15 2 -15 -3 0 -4 -11 -6 -25 -3 -14 2 -23 7 -21 11 7 10 76 8 76 -2z m35 5
c-3 -3 1 -12 8 -21 10 -14 10 -14 -4 -4 -9 7 -18 11 -21 8 -2 -3 -5 1 -5 8 0
8 6 14 14 14 7 0 11 -3 8 -5z m35 4 c0 -3 -4 -8 -10 -11 -5 -3 -10 -1 -10 4 0
6 5 11 10 11 6 0 10 -2 10 -4z m20 -11 c0 -8 -4 -15 -10 -15 -5 0 -7 7 -4 15
4 8 8 15 10 15 2 0 4 -7 4 -15z m64 -2 c4 -10 1 -11 -14 -3 -15 8 -21 6 -29
-7 -9 -16 -10 -16 -8 3 1 23 43 29 51 7z m33 2 c0 -8 -4 -12 -9 -9 -4 3 -8 9
-8 15 0 5 4 9 8 9 5 0 9 -7 9 -15z m27 -1 c3 -8 2 -12 -4 -9 -6 3 -10 10 -10
16 0 14 7 11 14 -7z m90 6 c-3 -3 -9 -5 -12 -5 -4 0 -13 -4 -21 -9 -10 -7 -12
-6 -6 4 5 9 2 10 -14 5 -11 -3 -21 -2 -21 2 0 5 18 9 40 9 21 0 37 -3 34 -6z
m23 -9 c0 -11 -5 -18 -9 -15 -4 3 -5 11 -1 19 7 21 12 19 10 -4z m83 4 c11
-13 10 -14 -4 -9 -9 3 -24 0 -34 -7 -14 -11 -13 -9 2 9 23 26 20 26 36 7z
m-880 -46 c-7 -11 -14 -18 -17 -15 -3 3 0 12 7 21 18 21 23 19 10 -6z m89 -2
c0 -9 -2 -8 -6 1 -2 6 -10 9 -15 6 -7 -4 -8 -2 -4 5 9 13 26 5 25 -12z m-355
-49 c-3 -5 -10 -6 -15 -3 -5 4 -9 1 -9 -6 0 -7 -3 -10 -6 -6 -9 9 3 24 20 24
8 0 13 -4 10 -9z m1960 -16 c3 -5 -1 -9 -9 -9 -8 0 -12 4 -9 9 3 4 7 8 9 8 2
0 6 -4 9 -8z m130 -30 c3 -5 -1 -9 -9 -9 -8 0 -12 4 -9 9 3 4 7 8 9 8 2 0 6
-4 9 -8z m-2347 -17 c0 -8 -4 -12 -9 -9 -5 3 -6 10 -3 15 9 13 12 11 12 -6z
m2426 1 c4 -10 1 -13 -9 -9 -15 6 -19 23 -5 23 5 0 11 -7 14 -14z m52 -16 c3
-5 1 -10 -4 -10 -6 0 -11 5 -11 10 0 6 2 10 4 10 3 0 8 -4 11 -10z m-2655 -37
c0 -3 -7 -3 -15 1 -8 3 -15 0 -15 -6 0 -6 -3 -9 -6 -5 -11 10 6 26 21 20 8 -3
15 -7 15 -10z m2849 -36 c0 -9 -2 -8 -6 1 -2 6 -10 9 -15 6 -7 -4 -8 -2 -4 5
9 13 26 5 25 -12z m107 -19 c4 -7 3 -8 -4 -4 -7 4 -12 2 -12 -5 0 -7 -3 -10
-6 -6 -6 5 3 27 11 27 2 0 7 -5 11 -12z m-3431 -126 c-3 -3 -11 0 -18 7 -9 10
-8 11 6 5 10 -3 15 -9 12 -12z m-81 -20 c3 -5 -1 -9 -9 -9 -8 0 -15 4 -15 9 0
4 4 8 9 8 6 0 12 -4 15 -8z m3916 -16 c0 -3 -4 -8 -10 -11 -5 -3 -10 -1 -10 4
0 6 5 11 10 11 6 0 10 -2 10 -4z m-4330 -196 c0 -5 -5 -10 -11 -10 -5 0 -7 5
-4 10 3 6 8 10 11 10 2 0 4 -4 4 -10z m-60 -30 c0 -5 -5 -10 -11 -10 -5 0 -7
5 -4 10 3 6 8 10 11 10 2 0 4 -4 4 -10z m5579 -594 c-3 -3 -11 5 -18 17 -13
21 -12 21 5 5 10 -10 16 -20 13 -22z m46 -15 c3 -5 2 -12 -3 -15 -5 -3 -9 1
-9 9 0 17 3 19 12 6z m-6901 -529 c3 -5 -1 -9 -9 -9 -8 0 -12 4 -9 9 3 4 7 8
9 8 2 0 6 -4 9 -8z m7530 -210 c3 -5 -1 -9 -9 -9 -8 0 -12 4 -9 9 3 4 7 8 9 8
2 0 6 -4 9 -8z m76 -112 c6 -11 8 -20 6 -20 -3 0 -10 9 -16 20 -6 11 -8 20 -6
20 3 0 10 -9 16 -20z m420 -782 c0 -4 -4 -8 -9 -8 -6 0 -12 4 -15 8 -3 5 1 9
9 9 8 0 15 -4 15 -9z m81 -235 c13 -16 12 -17 -3 -4 -10 7 -18 15 -18 17 0 8
8 3 21 -13z m74 -212 c3 -5 2 -12 -3 -15 -5 -3 -9 1 -9 9 0 17 3 19 12 6z
m-9062 -248 c-3 -7 -8 -13 -12 -13 -4 0 -8 6 -8 13 0 8 6 14 13 14 7 0 10 -6
7 -14z m-27 -95 c-9 -5 -13 -14 -10 -20 4 -7 2 -8 -5 -4 -8 6 -9 12 -2 20 6 7
8 16 4 20 -4 4 1 4 11 0 16 -6 17 -8 2 -16z m9184 -8 c0 -5 -2 -10 -4 -10 -3
0 -8 5 -11 10 -3 6 -1 10 4 10 6 0 11 -4 11 -10z m25 -130 c3 -5 1 -10 -4 -10
-6 0 -11 5 -11 10 0 6 2 10 4 10 3 0 8 -4 11 -10z m-9241 -55 c3 -8 0 -14 -7
-12 -7 1 -11 -4 -9 -11 1 -8 -2 -11 -8 -7 -6 4 -5 13 3 25 14 24 13 24 21 5z
m9286 -251 c0 -8 -19 -13 -24 -6 -3 5 1 9 9 9 8 0 15 -2 15 -3z m-9340 -1004
c0 -5 -2 -10 -4 -10 -3 0 -8 5 -11 10 -3 6 -1 10 4 10 6 0 11 -4 11 -10z
m9344 -121 c-10 -16 -23 -9 -21 10 1 15 4 17 14 9 7 -5 10 -14 7 -19z m-9269
-379 c3 -5 1 -10 -4 -10 -6 0 -11 5 -11 10 0 6 2 10 4 10 3 0 8 -4 11 -10z
m9200 0 c3 -5 1 -10 -4 -10 -6 0 -11 5 -11 10 0 6 2 10 4 10 3 0 8 -4 11 -10z
m-170 -609 c3 -5 2 -12 -3 -15 -5 -3 -9 1 -9 9 0 17 3 19 12 6z m-8848 -56 c0
-8 -4 -12 -9 -9 -5 3 -6 10 -3 15 9 13 12 11 12 -6z m8798 -85 c3 -6 -1 -7 -9
-4 -18 7 -21 14 -7 14 6 0 13 -4 16 -10z m-75 -204 c0 -3 -4 -8 -10 -11 -5 -3
-10 -1 -10 4 0 6 5 11 10 11 6 0 10 -2 10 -4z m-8589 -43 c13 -16 12 -17 -3
-4 -10 7 -18 15 -18 17 0 8 8 3 21 -13z m189 -357 c0 -11 -19 -15 -25 -6 -3 5
1 10 9 10 9 0 16 -2 16 -4z m8184 -4 c3 -5 -1 -9 -9 -9 -8 0 -12 4 -9 9 3 4 7
8 9 8 2 0 6 -4 9 -8z m-14 -57 c0 -7 -30 -13 -34 -7 -3 4 4 9 15 9 10 1 19 0
19 -2z m-8127 -25 c3 -11 1 -18 -4 -14 -5 3 -9 12 -9 20 0 20 7 17 13 -6z
m167 -260 c0 -5 -7 -7 -15 -4 -8 4 -15 8 -15 10 0 2 7 4 15 4 8 0 15 -4 15
-10z m3225 -72 c-6 -22 -6 -22 16 2 13 14 20 18 16 9 -5 -14 1 -16 33 -14 43
3 54 -2 63 -28 5 -13 3 -16 -6 -11 -8 5 -7 2 2 -9 7 -9 10 -17 7 -17 -4 0 -4
-6 1 -12 4 -7 8 -17 9 -23 0 -5 2 -16 2 -23 1 -7 6 -11 11 -7 17 10 22 -13 6
-28 -13 -13 -11 -17 16 -30 22 -10 26 -16 16 -20 -9 -3 -18 0 -21 8 -6 16 -58
14 -64 -3 -2 -7 8 -9 27 -7 24 3 29 0 28 -15 -1 -13 -5 -16 -11 -10 -13 13
-29 13 -21 -1 4 -5 18 -14 32 -20 13 -5 22 -13 18 -18 -3 -5 0 -11 7 -14 9 -2
8 -4 -1 -3 -8 1 -13 5 -10 10 5 10 -41 29 -50 21 -3 -3 1 -11 9 -16 12 -9 12
-10 -3 -5 -12 4 -17 2 -14 -6 2 -7 12 -12 21 -10 9 2 24 -2 34 -8 13 -8 11 -9
-13 -4 l-30 7 23 -22 c23 -22 30 -37 12 -26 -6 3 -13 -1 -16 -9 -3 -9 -11 -16
-17 -16 -5 0 -3 8 6 18 13 15 13 19 1 30 -8 7 -14 11 -15 10 0 -2 -2 -13 -3
-25 -2 -13 -6 -26 -11 -30 -4 -5 -5 1 -1 11 4 11 0 30 -10 45 -9 14 -11 20 -3
14 24 -23 31 -14 11 15 -10 15 -17 34 -14 42 4 13 3 13 -11 2 -13 -11 -15 -10
-13 13 2 15 -3 29 -13 35 -14 8 -14 9 2 15 9 4 17 11 17 16 0 6 -8 5 -19 0
-16 -9 -18 -8 -14 8 3 12 -3 24 -17 34 -11 8 -20 21 -18 28 2 8 -3 13 -10 11
-10 -2 -10 2 -3 17 8 14 7 22 -4 31 -11 9 -11 17 -3 36 14 30 21 31 13 2z
m1297 10 c-7 -7 -12 -16 -12 -22 0 -6 5 -5 12 2 16 16 25 15 32 -3 3 -8 0 -14
-6 -12 -15 3 -17 -25 -4 -35 6 -4 7 -10 3 -15 -5 -4 -12 -1 -16 6 -6 8 -11 9
-15 3 -3 -6 -2 -13 3 -17 16 -10 0 -37 -18 -30 -12 5 -13 4 -4 -6 9 -9 9 -18
-3 -41 -8 -16 -19 -26 -24 -23 -6 4 -10 2 -10 -4 0 -5 5 -13 10 -16 6 -3 10
-14 9 -23 0 -14 -2 -14 -8 2 -9 22 -20 10 -16 -16 2 -10 -1 -18 -6 -18 -5 0
-7 11 -5 25 3 13 0 27 -5 30 -10 7 -10 5 -13 -40 -1 -16 4 -34 11 -40 9 -7 10
-14 2 -25 -9 -13 -10 -12 -5 3 3 11 0 17 -9 17 -7 0 -14 8 -14 18 0 9 -2 28
-4 42 -2 14 1 31 6 38 12 15 -5 16 -20 1 -6 -6 -9 -18 -6 -27 5 -10 2 -13 -6
-8 -7 5 -10 15 -7 23 4 9 1 13 -6 10 -7 -2 -12 -14 -11 -26 3 -27 -5 -27 -41
4 -16 14 -25 25 -21 25 5 0 17 -7 27 -17 23 -21 24 0 1 23 -17 17 -17 17 2 10
11 -5 26 -8 33 -7 32 3 42 5 42 7 0 1 -3 9 -6 18 -7 18 -25 22 -21 5 4 -19
-20 -21 -37 -4 -9 9 -16 12 -16 6 0 -6 -4 -11 -10 -11 -15 0 -12 17 5 24 8 3
21 -1 29 -9 16 -16 27 -19 25 -7 -3 20 2 32 13 26 7 -4 8 -3 4 5 -5 8 -12 9
-20 2 -13 -11 -45 4 -33 16 5 4 12 1 17 -7 6 -9 10 -10 10 -3 0 13 -17 26 -38
29 -8 2 -11 -4 -7 -17 6 -18 -2 -23 -31 -20 -6 1 -18 -6 -25 -15 -12 -15 -11
-16 9 -10 15 5 22 3 22 -5 0 -7 -3 -9 -7 -5 -4 3 -13 -4 -21 -16 -7 -13 -11
-15 -8 -6 3 10 -4 22 -18 32 -13 8 -31 22 -41 32 -16 17 -18 16 -37 -7 -17
-21 -18 -22 -9 -2 7 13 7 24 2 28 -5 3 -12 -3 -14 -12 -5 -18 -7 -3 -8 55 0
19 -3 21 -14 12 -8 -6 -19 -8 -26 -4 -7 4 -10 2 -8 -5 3 -7 8 -12 13 -11 10 2
26 -20 26 -35 0 -7 -3 -7 -8 0 -23 31 -40 37 -66 20 -16 -11 -33 -14 -43 -10
-10 5 -26 10 -37 12 -16 3 -17 1 -6 -12 9 -10 9 -15 1 -15 -10 0 -15 13 -13
32 1 3 -5 12 -13 18 -13 11 -15 9 -13 -11 3 -27 -29 -40 -46 -18 -16 20 -47
24 -40 4 3 -8 10 -12 15 -9 5 3 12 -2 15 -10 3 -9 11 -13 17 -9 6 3 7 1 3 -6
-4 -6 -11 -9 -16 -6 -4 3 -11 -1 -14 -7 -3 -7 -3 -2 0 11 4 14 2 21 -4 17 -5
-3 -17 5 -26 19 -15 23 -45 37 -31 15 4 -6 1 -17 -5 -25 -10 -12 -10 -15 0
-15 8 0 11 -2 8 -5 -3 -3 -13 -3 -22 1 -15 6 -15 7 1 19 10 8 14 17 10 21 -4
5 -12 2 -17 -6 -9 -13 -10 -13 -11 0 0 10 -3 9 -10 -5 -9 -19 -9 -18 -5 3 5
25 -6 29 -24 7 -9 -10 -9 -15 -1 -15 6 0 11 -5 11 -11 0 -8 -6 -7 -17 2 -15
12 -16 12 -10 -6 7 -19 7 -19 -8 -1 -8 10 -12 24 -8 29 4 7 -1 8 -13 3 -15 -6
-16 -5 -7 5 10 10 15 9 28 -1 9 -8 15 -8 15 -2 0 6 -4 14 -10 17 -13 8 -13 25
0 25 6 0 9 -5 8 -11 -2 -6 3 -14 11 -17 8 -2 11 0 7 6 -4 6 2 8 16 4 20 -5 21
-4 9 11 -7 9 -18 14 -24 10 -6 -4 -7 -1 -3 6 6 9 13 8 27 -5 10 -9 19 -14 19
-9 0 4 7 2 15 -5 17 -14 38 -4 29 13 -4 7 -3 8 2 4 5 -5 9 -14 9 -20 0 -5 6
-12 14 -15 9 -3 11 0 5 9 -6 11 -5 12 8 2 8 -7 18 -10 21 -6 4 3 13 0 22 -7
18 -15 20 0 3 20 -10 11 -9 11 6 0 18 -14 19 -13 13 5 -7 20 -7 20 8 1 19 -24
55 -29 56 -7 0 12 3 10 8 -4 5 -11 7 -23 4 -28 -8 -14 29 -20 38 -6 13 21 11
29 -6 23 -8 -4 -15 -1 -15 7 0 7 3 9 7 6 3 -4 12 -2 20 5 8 6 13 7 12 2 -3
-19 1 -37 9 -30 4 4 8 12 8 17 1 5 2 12 3 15 0 4 8 0 17 -7 14 -11 18 -10 30
6 8 10 14 13 14 7 0 -7 3 -11 8 -11 4 1 9 0 12 -1 3 -1 15 -3 28 -4 16 -2 21
1 18 11 -3 8 -1 11 4 8 6 -3 10 -13 10 -21 0 -8 5 -14 11 -14 5 0 8 4 4 9 -10
16 15 23 32 9 15 -11 16 -11 10 5 -6 16 -4 16 23 2 27 -14 29 -14 35 5 7 21
25 28 25 10 0 -5 -4 -10 -10 -10 -5 0 -10 -4 -10 -10 0 -12 20 -9 36 6 6 5 35
10 63 9 28 -1 51 3 51 7 0 4 7 8 15 8 8 0 15 5 15 10 0 6 5 10 12 10 9 0 9 -3
0 -12z m-1023 -45 c-8 -9 -5 -11 10 -10 12 1 21 5 21 10 0 5 7 7 15 3 8 -3 19
3 25 12 11 15 11 15 6 -2 -5 -13 -2 -17 8 -13 10 4 13 1 10 -7 -3 -8 0 -17 7
-22 8 -4 10 -3 5 5 -4 6 0 14 11 18 10 4 21 11 25 17 5 8 8 7 8 -1 0 -7 7 -10
18 -7 14 5 14 4 2 -4 -8 -6 -18 -8 -22 -6 -14 9 -8 -14 8 -30 8 -9 12 -16 7
-16 -14 0 -35 17 -33 26 1 5 -3 10 -9 12 -7 2 -8 -3 -4 -14 5 -13 3 -16 -10
-11 -10 4 -20 0 -26 -11 -7 -11 -11 -12 -11 -4 0 7 -5 10 -12 6 -8 -5 -2 -15
16 -31 15 -12 23 -23 17 -23 -5 0 -13 5 -16 11 -4 6 -13 8 -21 5 -8 -3 -22 3
-31 14 -10 11 -21 20 -26 20 -5 0 -4 -6 2 -14 18 -22 -18 -30 -41 -10 -10 10
-21 15 -24 12 -3 -3 7 -15 22 -27 21 -16 30 -18 46 -10 11 6 22 8 26 5 3 -3 0
-6 -7 -6 -7 0 -9 -5 -6 -10 4 -6 10 -8 14 -6 13 8 34 -12 37 -36 2 -13 0 -17
-2 -11 -3 7 -5 15 -4 19 3 14 -24 22 -40 12 -13 -8 -24 -4 -50 21 -37 33 -50
34 -28 2 8 -12 17 -18 21 -15 3 3 10 -4 17 -15 6 -12 16 -18 22 -15 7 5 8 2 3
-6 -6 -10 -12 -8 -26 9 -10 12 -20 22 -23 21 -20 -1 -26 1 -23 11 1 6 -13 19
-30 28 -18 9 -31 21 -29 28 3 6 2 14 -2 18 -4 3 -7 21 -7 40 -1 30 1 32 21 25
12 -5 25 -6 30 -2 4 4 4 1 0 -5 -4 -7 -2 -13 3 -13 6 0 11 7 11 15 0 8 4 15
10 15 5 0 6 -8 3 -17 -6 -15 -4 -16 9 -6 8 7 18 10 21 6 4 -3 10 2 13 11 5 14
9 15 15 5 4 -7 3 -19 -2 -26z m31 27 c0 -5 -2 -10 -4 -10 -3 0 -8 5 -11 10 -3
6 -1 10 4 10 6 0 11 -4 11 -10z m160 5 c0 -7 -30 -13 -34 -7 -3 4 4 9 15 9 10
1 19 0 19 -2z m360 1 c0 -2 -7 -7 -16 -10 -8 -3 -12 -2 -9 4 6 10 25 14 25 6z
m55 -6 c3 -5 1 -10 -4 -10 -6 0 -11 5 -11 10 0 6 2 10 4 10 3 0 8 -4 11 -10z
m-897 -55 c-3 -3 -9 2 -12 12 -6 14 -5 15 5 6 7 -7 10 -15 7 -18z m615 -28 c3
-8 2 -20 -3 -26 -5 -9 -7 -4 -7 13 0 29 2 32 10 13z m250 6 c-7 -2 -13 -9 -13
-14 0 -6 5 -7 12 -3 6 4 8 3 4 -4 -3 -6 3 -14 15 -17 11 -4 18 -9 15 -12 -3
-3 -16 2 -30 10 -17 12 -26 13 -28 5 -7 -19 -48 -16 -59 4 -6 11 -8 22 -5 26
3 3 6 0 6 -7 0 -7 4 -9 10 -6 5 3 7 0 5 -7 -4 -9 2 -14 15 -14 13 0 19 5 15
14 -2 7 -1 11 4 8 5 -3 11 1 15 9 3 8 11 15 18 14 10 0 10 -2 1 -6z m-469 -18
c-4 -8 -8 -15 -10 -15 -2 0 -4 7 -4 15 0 8 4 15 10 15 5 0 7 -7 4 -15z m50
-11 c3 -9 11 -12 17 -8 8 4 7 9 -2 15 -10 6 -10 9 -2 9 18 0 27 -21 13 -30 -7
-5 -21 -3 -31 3 -23 14 -34 38 -14 31 7 -3 16 -12 19 -20z m301 -3 c-6 -5 -25
10 -25 20 0 5 6 4 14 -3 8 -7 12 -15 11 -17z m160 0 c-6 -5 -25 10 -25 20 0 5
6 4 14 -3 8 -7 12 -15 11 -17z m-365 9 c0 -5 -8 -10 -17 -10 -15 0 -16 2 -3
10 19 12 20 12 20 0z m158 -10 c-7 -10 -14 -17 -17 -15 -4 4 18 35 25 35 2 0
-1 -9 -8 -20z m-289 -31 c-8 -5 -18 -9 -24 -9 -5 1 -2 5 7 11 10 5 15 17 12
27 -5 14 -3 14 6 -2 10 -15 9 -20 -1 -27z m4016 20 c-4 -5 -12 -9 -18 -8 -9 0
-8 2 1 6 6 2 9 10 6 15 -4 7 -2 8 5 4 6 -4 9 -12 6 -17z m-3863 4 c-6 -2 -9
-10 -6 -15 4 -7 2 -8 -5 -4 -13 9 -5 26 12 25 9 0 8 -2 -1 -6z m154 -2 c-3 -5
1 -12 10 -15 9 -4 14 -9 11 -13 -9 -8 -38 17 -31 28 3 5 7 9 10 9 3 0 3 -4 0
-9z m284 -23 c0 -3 8 -9 18 -11 15 -4 15 -5 0 -6 -9 0 -23 5 -31 13 -14 14
-40 7 -37 -10 0 -5 -6 -10 -14 -12 -9 -2 -16 1 -16 7 0 6 7 7 17 4 11 -4 14
-3 9 5 -4 7 -1 15 8 18 9 3 13 10 10 16 -3 5 3 4 15 -4 12 -7 21 -16 21 -20z
m-89 -5 c-12 -20 -14 -14 -5 12 4 9 9 14 11 11 3 -2 0 -13 -6 -23z m-546 7 c3
-6 -1 -7 -9 -4 -18 7 -21 14 -7 14 6 0 13 -4 16 -10z m78 -21 c-8 -8 -13 -7
-18 2 -6 8 -4 10 5 4 10 -6 12 -4 6 11 -6 15 -5 17 5 7 9 -10 10 -16 2 -24z
m56 -3 c-3 -3 -11 5 -18 17 -13 21 -12 21 5 5 10 -10 16 -20 13 -22z m34 20
c4 -10 1 -13 -9 -9 -15 6 -19 23 -5 23 5 0 11 -7 14 -14z m102 6 c-8 -8 -55
-11 -55 -3 0 4 14 8 30 8 17 0 28 -2 25 -5z m40 -2 c3 -6 -1 -7 -9 -4 -18 7
-21 14 -7 14 6 0 13 -4 16 -10z m105 0 c0 -5 -2 -10 -4 -10 -3 0 -8 5 -11 10
-3 6 -1 10 4 10 6 0 11 -4 11 -10z m98 -15 c-3 -3 -9 2 -12 12 -6 14 -5 15 5
6 7 -7 10 -15 7 -18z m-674 0 c-4 -10 0 -15 10 -15 9 0 19 -7 22 -15 4 -8 10
-12 15 -9 5 3 9 0 9 -5 0 -16 -20 -13 -26 4 -4 8 -12 15 -19 15 -17 0 -28 17
-20 30 9 15 15 12 9 -5z m270 -19 c-3 -7 -12 -13 -21 -13 -14 0 -14 1 1 12 8
7 12 16 8 20 -4 5 -2 5 5 1 7 -4 10 -12 7 -20z m190 15 c4 -5 -3 -7 -14 -4
-23 6 -26 13 -6 13 8 0 17 -4 20 -9z m196 -1 c0 -5 -5 -10 -11 -10 -5 0 -7 5
-4 10 3 6 8 10 11 10 2 0 4 -4 4 -10z m3525 -11 c-4 -5 -12 -9 -18 -8 -9 0 -8
2 1 6 6 2 9 10 6 15 -4 7 -2 8 5 4 6 -4 9 -12 6 -17z m-4008 -11 c-3 -8 -6 -5
-6 6 -1 11 2 17 5 13 3 -3 4 -12 1 -19z m38 12 c3 -5 1 -10 -4 -10 -6 0 -11 5
-11 10 0 6 2 10 4 10 3 0 8 -4 11 -10z m161 -5 c-1 -8 -5 -17 -8 -21 -5 -4 -4
16 1 34 3 9 9 -1 7 -13z m140 -3 c0 -10 -8 -18 -16 -18 -9 0 -17 6 -17 13 0 7
4 10 8 7 4 -2 10 0 14 6 9 14 11 13 11 -8z m107 11 c-7 -2 -19 -2 -25 0 -7 3
-2 5 12 5 14 0 19 -2 13 -5z m170 -6 c7 3 9 2 5 -2 -5 -5 -20 -10 -34 -11 -25
-3 -25 -2 -8 11 11 7 21 9 22 4 2 -5 9 -6 15 -2z m97 9 c0 -2 -7 -7 -16 -10
-8 -3 -12 -2 -9 4 6 10 25 14 25 6z m-440 -11 c0 -2 -6 -8 -13 -14 -10 -8 -14
-7 -14 2 0 8 6 14 14 14 7 0 13 -1 13 -2z m135 -24 c-3 -2 -11 2 -20 9 -12 10
-15 10 -15 0 0 -8 -3 -11 -6 -7 -14 14 7 26 26 15 11 -7 17 -14 15 -17z m121
17 c3 -4 -1 -5 -10 -4 -8 1 -18 5 -22 8 -3 4 1 5 10 4 8 -1 18 -5 22 -8z m112
-8 c-7 -10 -14 -17 -17 -15 -4 4 18 35 25 35 2 0 -1 -9 -8 -20z m-473 -8 c-3
-3 -11 0 -18 7 -9 10 -8 11 6 5 10 -3 15 -9 12 -12z m-205 -2 c0 -5 -7 -6 -17
-3 -10 4 -14 2 -9 -5 3 -6 2 -13 -3 -16 -7 -5 -8 11 -2 32 3 7 31 0 31 -8z
m96 -2 c4 -7 3 -8 -4 -4 -7 4 -12 2 -12 -5 0 -7 -3 -10 -6 -6 -6 5 3 27 11 27
2 0 7 -5 11 -12z m234 9 c0 -2 -9 -12 -19 -21 -14 -13 -21 -14 -27 -5 -4 7 -3
10 3 6 6 -4 16 0 23 8 12 14 20 19 20 12z m150 -12 c-5 -7 -9 -14 -7 -16 1 -2
0 -3 -2 -2 -2 2 -11 -3 -20 -9 -12 -10 -12 -7 2 8 9 11 15 23 12 26 -3 2 2 5
10 5 10 0 12 -4 5 -12z m240 5 c-8 -5 -18 -6 -22 -4 -4 3 -8 -3 -8 -12 0 -10
-3 -15 -6 -11 -12 12 4 33 27 34 18 2 20 0 9 -7z m-530 -21 c0 -19 2 -24 13
-39 11 -13 10 -13 -6 -1 -9 8 -15 16 -12 19 3 3 -3 14 -12 24 -16 18 -16 18 0
12 9 -3 17 -10 17 -15z m383 1 c3 -11 1 -18 -4 -14 -5 3 -9 12 -9 20 0 20 7
17 13 -6z m77 -8 c0 -8 -1 -13 -3 -11 -1 2 -9 12 -16 22 -12 15 -12 17 3 11 9
-3 16 -13 16 -22z m97 6 c-3 -8 -6 -5 -6 6 -1 11 2 17 5 13 3 -3 4 -12 1 -19z
m-4077 8 c0 -3 -4 -8 -10 -11 -5 -3 -10 -1 -10 4 0 6 5 11 10 11 6 0 10 -2 10
-4z m3220 0 c0 -3 -4 -8 -10 -11 -5 -3 -10 -1 -10 4 0 6 5 11 10 11 6 0 10 -2
10 -4z m60 -11 c0 -8 -2 -15 -4 -15 -2 0 -6 7 -10 15 -3 8 -1 15 4 15 6 0 10
-7 10 -15z m76 3 c4 -7 3 -8 -4 -4 -7 4 -12 2 -12 -5 0 -7 -3 -10 -6 -6 -6 5
3 27 11 27 2 0 7 -5 11 -12z m25 -11 c-10 -9 -11 -8 -5 6 3 10 9 15 12 12 3
-3 0 -11 -7 -18z m323 12 c3 -3 -5 -5 -19 -5 -13 0 -22 3 -19 7 4 8 30 6 38
-2z m-510 -15 c3 -8 2 -12 -4 -9 -6 3 -10 10 -10 16 0 14 7 11 14 -7z m51 -3
c-3 -6 -11 -8 -17 -5 -7 5 -9 1 -5 -9 3 -10 2 -17 -4 -17 -6 0 -9 8 -7 18 2 9
10 16 16 15 7 -2 12 2 12 9 0 6 3 9 6 5 3 -3 3 -11 -1 -16z m201 -17 c0 -13
-2 -22 -5 -19 -3 3 -6 17 -7 31 0 13 2 22 5 19 3 -3 6 -17 7 -31z m605 22 c5
3 12 -2 15 -10 3 -9 10 -13 15 -10 5 3 6 -2 2 -12 -5 -15 -7 -14 -17 3 -6 11
-19 19 -28 18 -12 -2 -15 2 -10 13 4 10 7 12 10 4 2 -7 8 -10 13 -6z m59 -7
c0 -6 -4 -7 -10 -4 -5 3 -10 11 -10 16 0 6 5 7 10 4 6 -3 10 -11 10 -16z
m-620 -1 c0 -4 -4 -8 -9 -8 -6 0 -12 4 -15 8 -3 5 1 9 9 9 8 0 15 -4 15 -9z
m416 -14 c10 -2 23 1 29 6 8 6 12 5 12 -4 0 -8 -11 -13 -26 -12 -31 2 -51 13
-51 29 0 8 4 7 9 -2 5 -8 17 -16 27 -17z m270 8 c1 -7 0 -8 -3 -2 -7 16 -26
12 -20 -4 7 -17 -18 -40 -33 -31 -5 3 -10 12 -9 18 0 9 2 9 6 0 2 -7 10 -13
16 -13 5 0 7 3 4 6 -3 4 -2 15 4 26 11 20 31 20 35 0z m-906 -12 c0 -5 -4 -10
-10 -10 -5 0 -10 5 -10 10 0 6 5 10 10 10 6 0 10 -4 10 -10z m740 0 c0 -5 -2
-10 -4 -10 -3 0 -8 5 -11 10 -3 6 -1 10 4 10 6 0 11 -4 11 -10z m-380 -14 c0
-3 -4 -8 -10 -11 -5 -3 -10 -1 -10 4 0 6 5 11 10 11 6 0 10 -2 10 -4z m536
-22 c-11 -8 -25 -14 -30 -13 -6 0 -1 5 12 11 12 6 22 16 22 21 0 6 3 7 7 3 5
-4 -1 -14 -11 -22z m-4094 -8 c7 4 8 2 4 -5 -9 -14 -36 3 -36 23 0 6 5 3 11
-7 6 -9 15 -14 21 -11z m3175 18 c-3 -3 -12 -4 -19 -1 -8 3 -5 6 6 6 11 1 17
-2 13 -5z m521 -19 c-3 -3 -9 2 -12 12 -6 14 -5 15 5 6 7 -7 10 -15 7 -18z
m169 7 c-10 -10 -16 -21 -15 -23 2 -2 1 -3 -1 -1 -3 1 -6 9 -7 17 -1 8 2 13 6
10 5 -3 11 -1 15 5 3 5 9 10 12 10 3 0 -1 -8 -10 -18z m108 9 c3 -5 2 -12 -3
-15 -5 -3 -9 1 -9 9 0 17 3 19 12 6z m-605 -7 c0 -8 -19 -13 -24 -6 -3 5 1 9
9 9 8 0 15 -2 15 -3z m265 -4 c3 -5 1 -10 -4 -10 -6 0 -11 5 -11 10 0 6 2 10
4 10 3 0 8 -4 11 -10z m109 -2 c-3 -4 -9 -8 -15 -8 -5 0 -9 4 -9 8 0 5 7 9 15
9 8 0 12 -4 9 -9z m276 0 c0 -4 -4 -8 -9 -8 -6 0 -12 4 -15 8 -3 5 1 9 9 9 8
0 15 -4 15 -9z m102 0 c-16 -16 -15 -28 1 -24 6 1 9 1 5 -1 -5 -3 -8 -9 -8
-14 0 -6 5 -7 12 -3 7 5 8 3 3 -6 -6 -10 -12 -7 -26 11 -12 15 -19 19 -19 10
0 -8 -3 -11 -7 -7 -4 4 3 16 17 26 28 22 40 26 22 8z m-938 -14 c5 -14 4 -15
-9 -4 -17 14 -19 20 -6 20 5 0 12 -7 15 -16z m333 1 c0 -8 -4 -12 -9 -9 -5 3
-6 10 -3 15 9 13 12 11 12 -6z m-292 -5 c-3 -5 -12 -10 -18 -10 -7 0 -6 4 3
10 19 12 23 12 15 0z m251 -16 c1 -9 0 -13 -4 -10 -3 4 -7 14 -8 22 -1 9 0 13
4 10 3 -4 7 -14 8 -22z m200 11 c-1 -8 -5 -17 -8 -21 -5 -4 -4 16 1 34 3 9 9
-1 7 -13z m309 5 c-3 -5 -14 -10 -23 -9 -14 0 -13 2 3 9 27 11 27 11 20 0z
m65 -4 c-1 -5 4 -13 12 -18 11 -8 11 -9 0 -6 -8 2 -13 7 -12 12 1 5 -4 13 -12
18 -11 8 -11 9 0 6 8 -2 13 -7 12 -12z m-910 -10 c0 -8 -4 -17 -8 -20 -4 -2
-8 4 -8 15 0 10 4 19 8 19 4 0 8 -6 8 -14z m781 -3 c13 -16 12 -17 -3 -4 -17
13 -22 21 -14 21 2 0 10 -8 17 -17z m-150 -16 c-10 -9 -11 -8 -5 6 3 10 9 15
12 12 3 -3 0 -11 -7 -18z m226 1 c-3 -8 -6 -5 -6 6 -1 11 2 17 5 13 3 -3 4
-12 1 -19z m-810 -4 c-3 -3 -12 -4 -19 -1 -8 3 -5 6 6 6 11 1 17 -2 13 -5z
m758 -4 c-3 -5 -12 -10 -18 -10 -7 0 -6 4 3 10 19 12 23 12 15 0z m155 2 c0
-12 -22 -32 -34 -32 -6 0 -3 5 7 11 9 6 15 14 12 20 -4 5 -1 9 4 9 6 0 11 -4
11 -8z m-925 -14 c5 4 5 1 1 -6 -6 -10 -11 -10 -22 -1 -8 6 -14 14 -14 16 0 3
6 0 13 -6 8 -6 18 -7 22 -3z m65 -4 c0 -8 -19 -13 -24 -6 -3 5 1 9 9 9 8 0 15
-2 15 -3z m776 -16 c19 -23 19 -23 -2 -5 -11 9 -24 14 -29 10 -4 -5 -5 -2 -1
5 9 16 10 16 32 -10z m114 12 c0 -5 -2 -10 -4 -10 -3 0 -8 5 -11 10 -3 6 -1
10 4 10 6 0 11 -4 11 -10z m-1035 -10 c-3 -5 0 -10 7 -10 8 0 5 -5 -5 -11 -14
-8 -22 -8 -30 1 -9 8 -8 10 6 4 10 -3 17 -3 16 2 -2 14 0 24 7 24 3 0 2 -4 -1
-10z m35 -25 c-7 -8 -16 -15 -21 -15 -5 0 -1 8 9 18 20 22 31 19 12 -3z m607
0 c0 -8 -4 -12 -9 -9 -5 3 -6 10 -3 15 9 13 12 11 12 -6z m243 11 c0 -2 -8
-10 -17 -17 -16 -13 -17 -12 -4 4 13 16 21 21 21 13z m87 -2 c-3 -3 -12 -4
-19 -1 -8 3 -5 6 6 6 11 1 17 -2 13 -5z m-3959 -29 c-3 -3 -9 2 -12 12 -6 14
-5 15 5 6 7 -7 10 -15 7 -18z m3072 10 c-5 -7 -9 -14 -7 -16 1 -2 0 -3 -2 -1
-11 7 -7 29 5 29 9 0 11 -4 4 -12z m914 7 c2 -4 -5 -9 -17 -9 -17 -2 -19 0 -7
7 18 12 18 12 24 2z m-996 -37 c-3 -3 -9 2 -12 12 -6 14 -5 15 5 6 7 -7 10
-15 7 -18z m981 -2 c-13 -9 -27 -22 -31 -27 -5 -7 -8 -7 -8 2 0 7 7 15 15 18
8 4 13 9 11 13 -3 4 5 8 16 8 20 2 20 1 -3 -14z m-915 -4 c3 -3 -5 -5 -19 -5
-13 0 -22 3 -19 7 4 8 30 6 38 -2z m715 8 c-2 -1 -13 -9 -24 -17 -19 -14 -19
-14 -6 3 7 9 18 17 24 17 6 0 8 -1 6 -3z m-763 -40 c1 -7 -8 -14 -20 -14 -19
-2 -19 -1 -3 8 9 6 14 16 11 22 -4 7 -3 8 1 4 5 -4 10 -13 11 -20z m848 15 c3
-5 -1 -9 -9 -9 -8 0 -12 4 -9 9 3 4 7 8 9 8 2 0 6 -4 9 -8z m-584 -16 c0 -2
-7 -7 -16 -10 -8 -3 -12 -2 -9 4 6 10 25 14 25 6z m615 -5 c3 -5 2 -12 -3 -15
-5 -3 -9 1 -9 9 0 17 3 19 12 6z m-855 -39 c0 -5 -7 -9 -15 -9 -8 0 -12 4 -9
9 3 4 9 8 15 8 5 0 9 -4 9 -8z m900 -2 c0 -5 -4 -10 -10 -10 -5 0 -10 5 -10
10 0 6 5 10 10 10 6 0 10 -4 10 -10z m-863 -25 c0 -7 -10 -18 -21 -25 -17 -10
-19 -10 -8 1 15 16 16 33 0 23 -6 -4 -8 -3 -5 3 9 14 34 12 34 -2z m39 -10
c-1 -8 -5 -17 -8 -21 -5 -4 -4 16 1 34 3 9 9 -1 7 -13z m804 0 c0 -8 -4 -15
-8 -15 -5 0 -9 7 -9 15 0 8 4 15 9 15 4 0 8 -7 8 -15z m-42 -30 c-3 -3 -9 2
-12 12 -6 14 -5 15 5 6 7 -7 10 -15 7 -18z m-705 -10 c-7 -21 -12 -19 -10 4 0
11 5 18 9 15 4 -3 5 -11 1 -19z m508 -2 c13 -16 12 -17 -3 -4 -17 13 -22 21
-14 21 2 0 10 -8 17 -17z m139 -17 c0 -3 -4 -8 -10 -11 -5 -3 -10 -1 -10 4 0
6 5 11 10 11 6 0 10 -2 10 -4z m2929 -48 c-8 -14 -14 -18 -17 -10 -2 6 -9 9
-14 6 -7 -4 -8 -2 -4 5 4 6 11 9 16 6 5 -3 11 -1 15 5 12 20 15 10 4 -12z
m-6458 -51 c-10 -9 -11 -8 -5 6 3 10 9 15 12 12 3 -3 0 -11 -7 -18z m3484 1
c5 4 5 1 1 -6 -6 -10 -11 -10 -22 -1 -8 6 -14 14 -14 16 0 3 6 0 13 -6 8 -6
18 -7 22 -3z m-574 -31 c-6 -8 -7 -18 -3 -22 4 -5 1 -5 -6 -1 -10 6 -10 11 -1
22 6 8 14 14 16 14 3 0 0 -6 -6 -13z m573 -12 c-7 -16 -24 -21 -24 -6 0 8 7
13 27 20 1 1 0 -6 -3 -14z m-577 -40 c0 -8 -4 -12 -9 -9 -5 3 -6 10 -3 15 9
13 12 11 12 -6z m577 0 c-7 -18 -20 -19 -30 -3 -4 6 -3 8 4 4 6 -3 13 -2 17 4
9 15 15 12 9 -5z m-3219 -125 c3 -5 1 -10 -4 -10 -6 0 -11 5 -11 10 0 6 2 10
4 10 3 0 8 -4 11 -10z m60 -58 c-3 -3 -11 0 -18 7 -9 10 -8 11 6 5 10 -3 15
-9 12 -12z m2620 -2 c3 -5 1 -10 -4 -10 -6 0 -11 5 -11 10 0 6 2 10 4 10 3 0
8 -4 11 -10z m-2535 -36 c0 -8 -19 -13 -24 -6 -3 5 1 9 9 9 8 0 15 -2 15 -3z
m2537 -29 c0 -8 -4 -12 -9 -9 -5 3 -6 10 -3 15 9 13 12 11 12 -6z m503 10 c0
-2 -10 -9 -22 -15 -22 -11 -22 -10 -4 4 21 17 26 19 26 11z m-469 -32 c13 -16
12 -17 -3 -4 -10 7 -18 15 -18 17 0 8 8 3 21 -13z m469 3 c0 -2 -6 -9 -14 -15
-11 -9 -16 -9 -22 0 -4 7 -3 9 4 5 6 -3 13 -2 17 4 6 10 15 14 15 6z m-480
-32 c0 -8 -19 -13 -24 -6 -3 5 1 9 9 9 8 0 15 -2 15 -3z m472 -29 c3 -13 1
-22 -3 -19 -9 5 -13 44 -5 44 2 0 6 -11 8 -25z m-452 11 c0 -2 -7 -7 -16 -10
-8 -3 -12 -2 -9 4 6 10 25 14 25 6z m31 -13 c13 -16 12 -17 -3 -4 -17 13 -22
21 -14 21 2 0 10 -8 17 -17z m386 2 c0 -8 -4 -12 -9 -9 -5 3 -6 10 -3 15 9 13
12 11 12 -6z m-415 -29 c7 4 8 2 4 -5 -9 -13 -26 -5 -25 12 0 9 2 8 6 -1 2 -6
10 -9 15 -6z m142 -4 c3 -5 -1 -9 -9 -9 -8 0 -12 4 -9 9 3 4 7 8 9 8 2 0 6 -4
9 -8z m230 -31 c-2 -3 -12 3 -22 13 -16 17 -16 18 5 5 12 -7 20 -15 17 -18z
m-314 13 c0 -8 -19 -13 -24 -6 -3 5 1 9 9 9 8 0 15 -2 15 -3z m395 -4 c-3 -5
-12 -10 -18 -10 -7 0 -6 4 3 10 19 12 23 12 15 0z m2355 -5 c-7 -9 -15 -13
-19 -10 -3 3 1 10 9 15 21 14 24 12 10 -5z m-2820 -30 c-7 -8 -16 -15 -21 -15
-5 0 -1 8 9 18 20 22 31 19 12 -3z m21 -38 c-10 -9 -11 -8 -5 6 3 10 9 15 12
12 3 -3 0 -11 -7 -18z m359 -2 c0 -2 -6 -8 -13 -14 -10 -8 -14 -7 -14 2 0 8 6
14 14 14 7 0 13 -1 13 -2z m-399 -28 c-10 -9 -11 -8 -5 6 3 10 9 15 12 12 3
-3 0 -11 -7 -18z m149 19 c0 -2 -6 -9 -14 -15 -11 -9 -16 -9 -22 0 -4 7 -3 9
4 5 6 -3 13 -2 17 4 6 10 15 14 15 6z m280 -17 c0 -5 -4 -9 -8 -9 -5 0 -9 7
-9 15 0 8 4 12 9 9 4 -3 8 -9 8 -15z m-399 -3 c-9 -11 -9 -15 1 -19 7 -3 3 -4
-9 -4 -21 1 -21 2 -6 19 19 21 31 24 14 4z m-2194 -2 c-3 -3 -12 -4 -19 -1 -8
3 -5 6 6 6 11 1 17 -2 13 -5z m2232 -7 c8 -10 7 -14 -2 -14 -8 0 -14 6 -14 14
0 7 1 13 2 13 2 0 8 -6 14 -13z m401 9 c0 -2 -8 -10 -17 -17 -16 -13 -17 -12
-4 4 13 16 21 21 21 13z m-344 -42 c1 -9 0 -13 -4 -10 -3 4 -7 14 -8 22 -1 9
0 13 4 10 3 -4 7 -14 8 -22z m258 -3 c-2 -3 -12 3 -22 13 -16 17 -16 18 5 5
12 -7 20 -15 17 -18z m-128 -9 c-17 -16 -18 -16 -5 5 7 12 15 20 18 17 3 -2
-3 -12 -13 -22z m90 16 c4 -7 4 -10 -1 -6 -4 4 -15 2 -24 -5 -14 -11 -14 -10
-2 6 16 20 18 21 27 5z m-316 -14 c0 -8 -19 -13 -24 -6 -3 5 1 9 9 9 8 0 15
-2 15 -3z m40 -9 c0 -12 -19 -12 -23 0 -4 9 -1 12 9 8 7 -3 14 -7 14 -8z m37
-1 c-3 -3 -12 -4 -19 -1 -8 3 -5 6 6 6 11 1 17 -2 13 -5z m36 -9 c-3 -9 -8
-14 -10 -11 -3 3 -2 9 2 15 9 16 15 13 8 -4z m140 -6 c-8 -8 -13 -7 -18 2 -5
8 -4 10 3 5 7 -4 12 -2 12 5 0 7 3 9 7 6 4 -4 2 -12 -4 -18z m104 15 c-3 -3
-12 -4 -19 -1 -8 3 -5 6 6 6 11 1 17 -2 13 -5z m-2437 -14 c0 -5 -2 -10 -4
-10 -3 0 -8 5 -11 10 -3 6 -1 10 4 10 6 0 11 -4 11 -10z m2240 0 c0 -5 -5 -10
-11 -10 -5 0 -7 5 -4 10 3 6 8 10 11 10 2 0 4 -4 4 -10z m116 -12 c-3 -13 -5
-26 -5 -30 -1 -5 -6 -8 -12 -8 -6 0 -7 5 -2 13 8 12 9 17 12 37 0 6 3 10 6 10
3 0 3 -10 1 -22z m160 10 c4 -7 3 -8 -4 -4 -11 7 -17 -6 -13 -27 1 -5 -3 -6
-9 -2 -7 4 -7 12 0 26 12 22 16 23 26 7z m-436 -18 c0 -5 -5 -10 -11 -10 -5 0
-7 5 -4 10 3 6 8 10 11 10 2 0 4 -4 4 -10z m189 -12 c-11 -21 -15 -22 -25 -6
-5 7 -3 8 6 3 9 -6 12 -4 8 7 -4 8 0 15 7 15 10 0 11 -5 4 -19z m-149 2 c0 -5
-7 -10 -15 -10 -9 0 -12 -6 -9 -15 4 -8 10 -15 16 -15 5 0 6 5 2 12 -4 6 -3 8
4 4 5 -3 13 0 15 6 4 9 6 10 6 1 1 -11 -36 -43 -51 -43 -12 0 -2 52 13 61 18
11 19 11 19 -1z m55 0 c-3 -5 0 -10 7 -11 10 0 10 -2 0 -6 -6 -2 -9 -10 -6
-15 4 -7 2 -8 -5 -4 -6 4 -9 12 -6 17 4 5 0 9 -7 9 -9 0 -9 3 2 10 19 12 23
12 15 0z m221 -16 c2 -23 1 -24 -11 -7 -10 13 -10 20 -2 25 7 4 12 8 12 8 0 0
1 -11 1 -26z m78 11 c3 -8 1 -15 -4 -15 -6 0 -10 7 -10 15 0 8 2 15 4 15 2 0
6 -7 10 -15z m-154 -30 c0 -5 -5 -3 -10 5 -5 8 -10 20 -10 25 0 6 5 3 10 -5 5
-8 10 -19 10 -25z m-82 0 c-3 -3 -9 2 -12 12 -6 14 -5 15 5 6 7 -7 10 -15 7
-18z m205 18 c-7 -2 -19 -2 -25 0 -7 3 -2 5 12 5 14 0 19 -2 13 -5z m-214 -47
c0 -6 -3 -5 -6 2 -2 6 -9 10 -14 7 -5 -4 -6 2 -2 11 5 13 3 15 -7 9 -9 -6 -11
-4 -5 5 6 10 11 9 22 -5 7 -11 13 -24 12 -29z m46 25 c-3 -6 -11 -11 -16 -11
-5 0 -4 6 3 14 14 16 24 13 13 -3z m114 -25 c0 -6 -3 -5 -6 2 -2 6 -9 10 -14
7 -5 -4 -6 2 -2 12 5 15 3 16 -8 6 -7 -7 -17 -13 -23 -13 -5 0 -1 7 10 15 17
12 20 12 32 -2 6 -9 12 -22 11 -27z m-59 2 c12 4 13 2 2 -9 -11 -12 -15 -11
-26 3 -7 10 -16 15 -20 11 -4 -4 -4 1 0 11 7 18 8 17 18 -1 6 -11 18 -18 26
-15z m-164 10 c4 -7 3 -8 -4 -4 -7 4 -12 3 -12 -3 0 -5 5 -12 10 -14 6 -3 5
-4 -2 -3 -16 3 -24 36 -9 36 5 0 13 -5 17 -12z m-1932 -44 c3 -8 2 -12 -4 -9
-6 3 -10 10 -10 16 0 14 7 11 14 -7z m131 -54 c3 -6 -1 -7 -9 -4 -18 7 -21 14
-7 14 6 0 13 -4 16 -10z m3815 -20 c0 -5 -2 -10 -4 -10 -3 0 -8 5 -11 10 -3 6
-1 10 4 10 6 0 11 -4 11 -10z m-3743 -16 c-3 -3 -12 -4 -19 -1 -8 3 -5 6 6 6
11 1 17 -2 13 -5z m2056 -50 c-7 -3 -9 -13 -6 -22 4 -14 3 -14 -5 -2 -12 16
-7 30 11 29 9 0 9 -2 0 -5z m-1775 -79 c-3 -3 -9 2 -12 12 -6 14 -5 15 5 6 7
-7 10 -15 7 -18z m3119 10 c0 -8 -4 -12 -9 -9 -5 3 -6 10 -3 15 9 13 12 11 12
-6z m-381 -110 c-3 -20 -26 -44 -26 -27 0 7 5 12 10 12 6 0 9 3 9 8 -2 11 1
22 5 22 2 0 3 -7 2 -15z m-1329 -21 c-3 -3 -12 -4 -19 -1 -8 3 -5 6 6 6 11 1
17 -2 13 -5z m3 -18 c0 -2 -7 -7 -16 -10 -8 -3 -12 -2 -9 4 6 10 25 14 25 6z
m-610 -51 c0 -2 -6 -5 -13 -8 -8 -3 -14 1 -14 8 0 7 6 11 14 8 7 -3 13 -6 13
-8z m77 -27 c-3 -8 -6 -5 -6 6 -1 11 2 17 5 13 3 -3 4 -12 1 -19z m1247 -6 c3
-5 -1 -9 -9 -9 -8 0 -12 4 -9 9 3 4 7 8 9 8 2 0 6 -4 9 -8z m-780 -30 c3 -5
-1 -9 -9 -9 -8 0 -15 4 -15 9 0 4 4 8 9 8 6 0 12 -4 15 -8z"/>
<path d="M4334 2208 c-3 -5 -11 -5 -17 -1 -7 3 -4 -3 6 -14 9 -11 14 -23 11
-26 -4 -4 -2 -12 4 -19 6 -7 10 -15 9 -18 -1 -3 8 -18 21 -34 12 -16 22 -22
22 -15 1 9 4 8 11 -4 8 -13 7 -22 -1 -32 -7 -9 -8 -15 -1 -19 6 -4 9 -12 7
-19 -1 -7 -1 -9 1 -5 3 4 10 2 18 -5 8 -8 10 -16 4 -24 -7 -7 -6 -14 1 -18 10
-6 11 -5 15 33 1 12 0 20 -3 17 -3 -2 -11 0 -18 6 -19 15 8 41 33 33 16 -6 15
-5 -2 9 -11 8 -23 13 -26 11 -4 -2 -14 8 -23 21 -9 14 -22 23 -27 19 -7 -4 -7
1 0 15 14 26 17 26 48 1 14 -11 22 -20 18 -20 -4 0 -2 -6 4 -13 6 -8 8 -17 4
-20 -3 -4 -2 -7 4 -7 6 0 16 7 23 16 8 8 9 14 4 13 -23 -4 -31 3 -30 24 1 12
-2 28 -7 35 -5 6 -6 12 -2 12 4 0 2 6 -4 14 -6 8 -10 20 -9 27 3 15 -90 21
-98 7z m79 -24 c-10 -15 -11 -24 -3 -29 6 -3 9 -3 8 2 -2 4 0 9 5 11 4 1 6 0
5 -1 -2 -2 3 -11 9 -19 18 -21 3 -31 -18 -12 -16 14 -20 14 -38 2 -12 -8 -18
-18 -13 -23 4 -5 1 -5 -6 -1 -7 4 -10 11 -7 16 3 5 0 12 -6 15 -5 4 -8 13 -5
21 3 7 1 16 -5 19 -18 12 0 20 44 21 44 0 44 -1 30 -22z"/>
<path d="M4347 2187 c2 -4 14 -5 25 -1 16 5 18 3 12 -7 -12 -20 -14 -40 -2
-33 5 3 7 9 4 12 -3 3 1 13 9 22 14 15 12 16 -19 16 -19 0 -32 -4 -29 -9z"/>
<path d="M4390 2124 c0 -11 36 -49 49 -52 8 -2 5 9 -9 28 -19 27 -40 40 -40
24z"/>
<path d="M5586 2211 c-4 -5 -13 -8 -21 -4 -8 3 -15 0 -15 -7 0 -10 -3 -10 -15
0 -12 10 -18 10 -30 0 -12 -10 -15 -10 -15 0 0 9 -4 9 -17 -1 -19 -16 -50 -19
-75 -7 -10 5 -19 4 -23 -2 -5 -8 -11 -7 -21 1 -8 6 -17 9 -21 5 -3 -3 -1 -6 5
-6 7 0 12 -4 12 -9 0 -11 -53 -9 -62 3 -4 6 -10 7 -14 3 -4 -4 0 -15 9 -24 14
-14 17 -15 17 -3 0 8 6 4 13 -10 9 -16 20 -24 33 -22 15 3 16 1 7 -8 -9 -10
-19 -6 -47 15 -19 14 -38 26 -43 26 -4 0 -7 6 -5 14 4 19 -15 28 -21 11 -6
-16 26 -59 37 -49 3 4 20 -7 37 -23 l31 -29 25 30 c14 17 22 25 19 18 -8 -14
10 -27 18 -14 4 5 2 12 -4 16 -5 3 -10 11 -10 16 0 6 5 7 10 4 6 -3 10 -1 10
4 0 15 -15 14 -29 -2 -12 -15 -46 -16 -46 -2 0 6 4 9 9 7 4 -1 15 3 24 10 13
11 14 11 7 -2 -8 -13 -7 -13 9 0 16 13 20 12 32 -5 10 -13 14 -15 14 -5 0 9 6
6 16 -8 15 -21 52 -33 39 -12 -4 6 -11 8 -16 5 -5 -3 -6 1 -2 10 4 12 8 13 13
5 6 -9 9 -9 12 1 3 8 9 10 14 6 5 -4 4 -11 -2 -15 -13 -10 -14 -64 0 -59 6 2
10 11 8 20 -2 10 4 15 18 14 19 -1 24 -10 21 -30 -1 -5 4 -5 10 -1 8 5 9 3 4
-6 -6 -9 -4 -11 6 -5 12 7 12 5 1 -6 -11 -12 -14 -12 -22 1 -8 12 -10 13 -10
1 0 -8 -3 -11 -6 -8 -4 4 -2 13 5 21 9 11 8 15 -6 20 -10 4 -14 4 -10 0 4 -4
0 -15 -8 -24 -14 -15 -14 -18 0 -30 12 -10 13 -16 3 -29 -11 -14 -11 -14 3 -4
11 9 19 9 26 2 8 -8 11 -7 10 2 -1 8 3 15 8 17 6 2 15 13 21 25 9 16 9 26 -2
42 -13 19 -11 23 17 44 17 13 28 25 25 28 -3 4 0 13 7 22 10 14 10 14 -4 4
-11 -9 -19 -9 -26 -2 -7 7 -13 8 -17 0z m5 -50 c-30 -25 -31 -27 -15 -51 l16
-25 -23 25 c-12 14 -26 24 -30 23 -5 -2 -9 2 -9 8 0 5 -5 7 -12 3 -7 -4 -8 -3
-4 5 4 6 3 18 -4 26 -15 18 6 31 25 15 9 -8 15 -8 20 0 3 6 10 8 15 5 5 -3 12
-1 15 5 5 8 11 7 22 -2 13 -10 11 -15 -16 -37z m-101 18 c0 -5 -4 -8 -9 -4 -6
3 -14 -2 -19 -11 -8 -15 -10 -15 -15 0 -4 10 -3 14 2 11 5 -3 12 -1 16 5 8 13
25 13 25 -1z m53 -112 c4 3 7 1 7 -5 0 -17 -16 -15 -31 6 -12 15 -12 16 2 5 9
-7 19 -10 22 -6z"/>
<path d="M5586 2191 c-4 -5 -2 -12 3 -15 5 -4 12 -2 15 3 4 5 2 12 -3 15 -5 4
-12 2 -15 -3z"/>
<path d="M5530 2165 c17 -18 27 -22 36 -14 15 12 7 42 -8 33 -6 -4 -6 -9 2
-14 8 -5 9 -10 1 -14 -6 -4 -16 2 -23 14 -7 11 -17 20 -22 20 -5 0 1 -11 14
-25z"/>
<path d="M4865 2189 c-9 -14 -2 -20 14 -10 8 6 9 11 3 15 -6 3 -14 1 -17 -5z"/>
<path d="M4976 2165 c7 -18 44 -21 44 -3 0 6 -3 8 -6 5 -4 -3 -15 -2 -25 4
-15 7 -17 6 -13 -6z"/>
<path d="M5050 2175 c0 -7 30 -13 34 -7 3 4 -4 9 -15 9 -10 1 -19 0 -19 -2z"/>
<path d="M5595 2130 c4 -6 11 -8 16 -5 14 9 11 15 -7 15 -8 0 -12 -5 -9 -10z"/>
<path d="M4585 2200 c-4 -6 -10 -8 -15 -5 -5 3 -11 1 -14 -4 -6 -9 -34 -8 -66
1 -8 3 -12 3 -7 1 4 -3 7 -9 7 -14 0 -6 -4 -8 -9 -5 -8 5 -8 -15 -1 -34 1 -3
2 -8 1 -12 0 -4 6 -5 15 -1 8 3 14 2 12 -3 -2 -5 1 -9 7 -9 5 0 10 6 11 13 2
11 -10 16 -30 13 -5 -1 -4 4 2 12 7 8 9 17 5 21 -4 4 1 4 11 0 14 -5 15 -9 4
-15 -10 -7 -10 -9 3 -9 9 0 24 -9 34 -20 19 -21 35 -26 35 -12 0 5 -10 14 -22
19 -22 10 -21 10 7 11 17 0 40 -9 53 -21 23 -21 32 -11 10 12 -11 10 -10 12 1
9 7 -2 16 3 18 10 4 11 1 12 -15 3 -26 -14 -32 -14 -32 -1 0 6 3 9 8 9 18 -3
32 2 32 12 0 6 -5 7 -12 2 -32 -19 -66 -10 -47 13 6 8 9 14 6 14 -3 0 -9 -5
-12 -10z m-1 -42 c-3 -5 -11 -5 -19 2 -10 8 -14 8 -17 -2 -3 -8 -7 -6 -11 6
-4 9 -3 15 2 11 5 -3 13 -1 16 5 5 8 11 7 21 -1 7 -6 11 -15 8 -21z"/>
<path d="M4660 2183 c0 -15 18 -35 23 -27 3 5 -1 15 -9 22 -8 7 -14 9 -14 5z"/>
<path d="M4595 2070 c3 -5 11 -10 16 -10 6 0 7 5 4 10 -3 6 -11 10 -16 10 -6
0 -7 -4 -4 -10z"/>
<path d="M5210 9656 c0 -2 7 -9 15 -16 13 -11 14 -10 9 4 -5 14 -24 23 -24 12z"/>
<path d="M5246 9647 c3 -10 9 -15 12 -12 3 3 0 11 -7 18 -10 9 -11 8 -5 -6z"/>
<path d="M5316 9637 c3 -10 9 -15 12 -12 3 3 0 11 -7 18 -10 9 -11 8 -5 -6z"/>
<path d="M4421 9614 c0 -11 3 -14 6 -6 3 7 2 16 -1 19 -3 4 -6 -2 -5 -13z"/>
<path d="M5630 9599 c0 -5 5 -7 10 -4 6 3 10 8 10 11 0 2 -4 4 -10 4 -5 0 -10
-5 -10 -11z"/>
<path d="M7266 9052 c-3 -5 1 -9 9 -9 8 0 15 4 15 9 0 4 -4 8 -9 8 -6 0 -12
-4 -15 -8z"/>
<path d="M7365 9001 c-3 -5 -2 -12 3 -15 5 -3 9 1 9 9 0 17 -3 19 -12 6z"/>
<path d="M2118 8683 c7 -3 16 -2 19 1 4 3 -2 6 -13 5 -11 0 -14 -3 -6 -6z"/>
<path d="M7961 8583 c-1 -17 16 -25 25 -12 4 7 3 9 -4 5 -5 -3 -13 0 -15 6 -4
9 -6 10 -6 1z"/>
<path d="M8000 8545 c0 -2 10 -10 23 -16 20 -11 21 -11 8 4 -13 16 -31 23 -31
12z"/>
<path d="M1615 8240 c3 -5 8 -10 11 -10 2 0 4 5 4 10 0 6 -5 10 -11 10 -5 0
-7 -4 -4 -10z"/>
<path d="M1393 8003 c-12 -13 -19 -23 -14 -23 10 0 46 39 40 43 -2 2 -14 -7
-26 -20z"/>
<path d="M8644 7883 c2 -9 8 -18 15 -19 6 -1 7 0 1 3 -5 2 -8 9 -5 13 3 5 1
11 -4 14 -5 4 -8 -2 -7 -11z"/>
<path d="M8790 7686 c0 -2 7 -9 15 -16 13 -11 14 -10 9 4 -5 14 -24 23 -24 12z"/>
<path d="M1135 7660 c4 -6 11 -8 16 -5 14 9 11 15 -7 15 -8 0 -12 -5 -9 -10z"/>
<path d="M9085 7241 c-6 -11 13 -26 22 -17 4 3 1 6 -6 6 -7 0 -9 5 -6 10 3 6
4 10 1 10 -3 0 -7 -4 -11 -9z"/>
<path d="M713 6945 c0 -8 4 -12 9 -9 5 3 6 10 3 15 -9 13 -12 11 -12 -6z"/>
<path d="M9237 6929 c7 -7 15 -10 18 -7 3 3 -2 9 -12 12 -14 6 -15 5 -6 -5z"/>
<path d="M624 6763 c1 -12 5 -25 9 -28 4 -3 5 -2 2 2 -3 3 1 13 8 21 8 11 8
14 0 9 -6 -4 -14 -1 -17 5 -2 7 -4 3 -2 -9z"/>
<path d="M316 5682 c-3 -5 1 -9 9 -9 8 0 15 4 15 9 0 4 -4 8 -9 8 -6 0 -12 -4
-15 -8z"/>
<path d="M9645 5540 c-3 -5 -1 -10 4 -10 6 0 11 5 11 10 0 6 -2 10 -4 10 -3 0
-8 -4 -11 -10z"/>
<path d="M283 5368 c-2 -18 0 -20 7 -8 12 18 13 30 2 30 -4 0 -9 -10 -9 -22z"/>
<path d="M9666 5328 c3 -5 10 -6 15 -3 13 9 11 12 -6 12 -8 0 -12 -4 -9 -9z"/>
<path d="M275 5241 c-3 -5 -2 -12 3 -15 5 -3 9 1 9 9 0 17 -3 19 -12 6z"/>
<path d="M9670 5201 c0 -6 4 -13 10 -16 6 -3 7 1 4 9 -7 18 -14 21 -14 7z"/>
<path d="M260 5059 c0 -5 5 -7 10 -4 6 3 10 8 10 11 0 2 -4 4 -10 4 -5 0 -10
-5 -10 -11z"/>
<path d="M9675 4990 c-3 -6 1 -7 9 -4 18 7 21 14 7 14 -6 0 -13 -4 -16 -10z"/>
<path d="M250 4963 c0 -7 4 -14 10 -18 5 -3 7 -12 3 -20 -3 -8 -3 -15 0 -15
13 0 13 28 1 45 -8 10 -14 14 -14 8z"/>
<path d="M9675 4920 c3 -5 8 -10 11 -10 2 0 4 5 4 10 0 6 -5 10 -11 10 -5 0
-7 -4 -4 -10z"/>
<path d="M255 4780 c-3 -5 -2 -10 4 -10 5 0 13 5 16 10 3 6 2 10 -4 10 -5 0
-13 -4 -16 -10z"/>
<path d="M9676 4702 c-3 -5 1 -9 9 -9 8 0 12 4 9 9 -3 4 -7 8 -9 8 -2 0 -6 -4
-9 -8z"/>
<path d="M270 4599 c0 -5 5 -7 10 -4 6 3 10 8 10 11 0 2 -4 4 -10 4 -5 0 -10
-5 -10 -11z"/>
<path d="M290 4361 c0 -5 7 -12 16 -15 14 -5 15 -4 4 9 -14 17 -20 19 -20 6z"/>
<path d="M337 4084 c-3 -4 -2 -14 3 -24 5 -10 6 -21 2 -25 -4 -5 -1 -5 6 -1 8
5 9 13 2 25 -5 10 -6 21 -3 25 3 3 4 6 1 6 -2 0 -8 -3 -11 -6z"/>
<path d="M9585 4050 c-3 -5 -1 -10 4 -10 6 0 11 5 11 10 0 6 -2 10 -4 10 -3 0
-8 -4 -11 -10z"/>
<path d="M9570 3915 c-7 -9 -8 -15 -2 -15 5 0 12 7 16 15 3 8 4 15 2 15 -2 0
-9 -7 -16 -15z"/>
<path d="M9490 3580 c0 -5 5 -10 11 -10 5 0 7 5 4 10 -3 6 -8 10 -11 10 -2 0
-4 -4 -4 -10z"/>
<path d="M9325 3160 c-3 -5 1 -10 9 -10 9 0 16 5 16 10 0 6 -4 10 -9 10 -6 0
-13 -4 -16 -10z"/>
<path d="M1124 2225 c8 -8 18 -15 22 -15 3 0 1 7 -6 15 -7 8 -17 15 -22 15 -5
0 -3 -7 6 -15z"/>
<path d="M8805 2200 c-3 -5 -1 -10 4 -10 6 0 11 5 11 10 0 6 -2 10 -4 10 -3 0
-8 -4 -11 -10z"/>
<path d="M8661 2011 c-8 -5 -9 -11 -3 -15 5 -3 12 1 16 9 6 17 6 18 -13 6z"/>
<path d="M8605 1949 c-4 -6 -5 -12 -2 -15 2 -3 7 2 10 11 7 17 1 20 -8 4z"/>
<path d="M8550 1879 c0 -5 5 -7 10 -4 6 3 10 8 10 11 0 2 -4 4 -10 4 -5 0 -10
-5 -10 -11z"/>
<path d="M1516 1738 c10 -14 21 -24 23 -22 3 3 -6 15 -18 27 l-24 22 19 -27z"/>
<path d="M1694 1538 c-4 -6 -3 -8 4 -4 6 3 17 -1 25 -9 17 -17 31 -20 22 -5
-12 19 -43 31 -51 18z"/>
<path d="M7935 1290 c-3 -5 -1 -10 4 -10 6 0 11 5 11 10 0 6 -2 10 -4 10 -3 0
-8 -4 -11 -10z"/>
<path d="M7295 849 c-3 -4 2 -6 10 -5 21 3 28 13 10 13 -9 0 -18 -4 -20 -8z"/>
<path d="M2733 795 c0 -8 4 -15 9 -15 4 0 8 4 8 9 0 6 -4 12 -8 15 -5 3 -9 -1
-9 -9z"/>
<path d="M7185 790 c-3 -5 1 -10 10 -10 9 0 13 5 10 10 -3 6 -8 10 -10 10 -2
0 -7 -4 -10 -10z"/>
<path d="M7106 752 c-3 -6 -1 -14 5 -17 15 -10 25 3 12 16 -7 7 -13 7 -17 1z"/>
<path d="M4898 707 c16 -17 19 -26 11 -34 -8 -8 -8 -17 1 -32 11 -21 5 -46 -9
-37 -4 3 -13 1 -21 -4 -10 -6 -21 -3 -32 7 -10 9 -18 13 -18 8 0 -4 -7 -2 -15
5 -12 10 -19 10 -27 2 -8 -8 -7 -13 5 -17 9 -4 14 -15 12 -26 -2 -10 0 -18 5
-16 7 2 12 -7 9 -15 -1 -2 -2 -19 -4 -38 -3 -47 6 -62 25 -42 13 14 12 15 -3
9 -9 -3 -17 -2 -17 3 0 13 37 13 44 1 4 -5 -8 -21 -25 -35 -17 -14 -26 -26
-20 -26 5 0 13 5 17 11 4 8 9 7 16 -2 8 -11 9 -10 4 3 -3 10 -1 20 4 23 6 4
10 1 10 -5 0 -6 4 -9 9 -5 5 3 12 1 16 -5 3 -5 -2 -10 -12 -10 -15 0 -16 -2
-3 -10 11 -7 17 -4 24 10 5 11 13 20 18 20 11 0 10 -7 -4 -30 -11 -16 -9 -22
7 -34 11 -8 22 -12 25 -9 3 2 -3 9 -13 14 -13 8 -15 14 -7 30 6 11 8 24 5 29
-9 14 8 12 25 -2 12 -11 12 -10 2 3 -11 14 -9 17 13 17 20 0 23 -3 14 -14 -9
-11 -7 -20 5 -39 16 -24 16 -26 0 -32 -15 -6 -14 -7 4 -14 23 -9 31 -31 10
-26 -6 1 -13 -10 -14 -25 -2 -16 1 -28 6 -28 5 0 7 12 4 26 -3 15 -1 23 5 20
16 -10 24 14 10 30 -6 8 -9 17 -5 21 3 3 -1 17 -10 31 -15 22 -15 26 1 41 17
15 17 15 12 -2 -10 -27 2 -50 19 -36 17 14 18 5 3 -23 -8 -15 -8 -23 1 -32 8
-8 9 -6 4 9 -7 18 -6 18 9 6 10 -7 17 -9 17 -3 0 6 -6 13 -12 16 -9 3 -6 11
10 24 12 11 22 26 22 33 0 8 6 7 18 -4 21 -20 32 -22 32 -6 0 5 -4 8 -9 5 -14
-9 -37 27 -39 59 -1 28 -1 29 13 11 8 -11 18 -16 22 -11 5 4 2 10 -4 12 -10 3
-9 9 3 21 15 14 15 17 -2 29 -10 7 -13 13 -6 13 6 0 17 10 23 23 6 12 8 19 4
15 -4 -4 -14 0 -22 10 -10 13 -13 14 -11 2 2 -8 7 -18 13 -22 5 -4 6 -10 2
-15 -5 -4 -13 -1 -18 7 -9 12 -10 12 -5 -3 3 -10 2 -15 -3 -12 -5 3 -13 0 -16
-5 -5 -7 -12 -5 -20 7 -7 10 -11 21 -9 25 3 4 -2 5 -11 2 -14 -6 -13 -10 7
-33 13 -14 19 -23 14 -19 -5 4 -16 2 -24 -5 -13 -10 -14 -9 -8 1 9 15 -14 12
-27 -3 -5 -6 -7 -3 -4 7 6 17 -18 33 -28 18 -3 -4 1 -10 7 -13 10 -3 10 -8 -1
-18 -8 -8 -11 -9 -8 -3 4 7 0 17 -8 24 -7 6 -11 19 -8 28 3 12 2 13 -4 4 -7
-9 -13 -6 -22 14 l-12 27 26 -17 c14 -9 25 -12 25 -7 0 13 -26 32 -33 24 -4
-3 -7 -1 -7 6 0 7 -4 9 -10 6 -5 -3 -10 -2 -10 3 0 6 7 13 16 16 9 4 13 2 8
-5 -4 -7 -1 -10 7 -7 8 3 14 13 14 23 0 10 6 20 13 22 6 3 12 0 12 -7 0 -6 -5
-8 -11 -4 -7 4 -10 1 -7 -6 7 -21 28 -24 29 -3 0 15 2 14 9 -4 5 -13 15 -23
21 -23 8 0 8 4 -1 15 -12 15 -3 21 24 16 5 -1 5 6 2 16 -6 14 -4 15 5 6 13
-13 3 -37 -12 -28 -5 4 -9 2 -9 -4 0 -15 18 -23 26 -10 5 8 9 8 14 -2 5 -7 18
-14 31 -16 18 -3 20 -1 9 12 -6 8 -17 13 -23 12 -7 -1 -12 6 -12 15 0 10 -6
23 -12 29 -10 10 -17 9 -32 -5 -18 -16 -21 -16 -44 -1 -24 15 -26 15 -40 -4
-14 -21 -14 -21 -32 -1 -10 11 -23 20 -28 20 -6 0 -1 -10 11 -23z m-80 -99 c7
-7 12 -8 12 -4 0 5 7 2 16 -5 20 -16 44 -21 44 -8 0 6 4 8 9 4 5 -3 13 -1 16
5 6 10 48 -33 51 -52 1 -5 2 -11 3 -14 0 -3 7 -2 14 3 6 4 23 9 37 9 14 1 26
2 28 3 1 1 4 0 6 -1 2 -2 12 5 22 14 15 13 22 14 35 5 15 -11 15 -14 0 -27 -8
-8 -17 -14 -18 -12 -9 7 -20 0 -20 -13 0 -8 5 -15 11 -15 12 0 -14 -20 -26
-20 -10 0 -6 23 6 31 4 4 3 10 -3 13 -6 4 -11 2 -11 -3 0 -6 -5 -11 -11 -11
-8 0 -7 6 2 18 13 16 13 16 -7 0 -27 -23 -40 -23 -23 0 13 15 12 16 -3 3 -10
-7 -18 -10 -18 -5 0 4 -7 -1 -15 -12 -14 -17 -14 -17 -9 -1 5 14 2 18 -11 15
-10 -2 -20 3 -23 11 -3 8 0 11 6 7 6 -3 13 -3 16 2 2 4 -6 8 -19 8 -14 0 -21
-4 -17 -10 3 -6 -1 -5 -10 1 -8 7 -19 9 -24 5 -4 -4 -2 2 6 13 14 19 14 19 -2
6 -10 -7 -18 -11 -18 -7 0 3 -8 -2 -18 -11 -21 -20 -10 -32 24 -28 29 3 30 -3
7 -22 -10 -8 -12 -11 -4 -7 9 5 12 3 7 -4 -5 -8 -1 -10 11 -5 16 6 17 5 3 -13
-14 -17 -13 -18 1 -7 9 7 20 9 25 5 4 -4 3 0 -4 9 -6 9 -9 19 -5 22 3 4 12 -1
20 -11 11 -15 12 -15 7 -1 -3 10 -1 20 5 24 7 3 8 0 5 -9 -7 -17 11 -22 21 -6
3 6 11 10 16 10 6 0 8 -4 4 -9 -3 -6 8 -8 26 -6 24 3 29 2 20 -9 -6 -7 -7 -17
-3 -21 4 -5 0 -4 -8 1 -24 14 -72 13 -102 -2 -27 -14 -63 -9 -53 6 3 5 1 11
-5 15 -6 4 -8 11 -5 16 4 5 -4 8 -16 6 -25 -2 -36 31 -13 40 8 3 14 9 14 15 0
5 -4 7 -9 4 -5 -3 -14 1 -21 9 -7 8 -9 15 -4 15 5 0 0 7 -10 15 -11 8 -15 15
-10 15 6 0 15 -5 22 -12z m98 -78 c11 -8 17 -14 15 -13 -2 2 -10 -2 -17 -7 -9
-8 -12 -6 -10 7 1 13 -6 18 -26 17 -15 -1 -25 3 -22 7 7 12 38 6 60 -11z m172
-59 c1 -1 -2 -9 -7 -20 -6 -11 -21 -18 -36 -18 -28 0 -33 12 -9 21 8 3 13 10
10 14 -4 7 23 8 42 3z"/>
<path d="M4825 590 c-3 -5 -5 -10 -3 -11 33 -8 38 -7 27 7 -14 17 -16 17 -24
4z"/>
<path d="M4907 577 c-3 -8 3 -13 19 -13 18 0 21 3 12 13 -6 7 -14 13 -18 13
-4 0 -10 -6 -13 -13z"/>
<path d="M5056 538 c3 -4 11 -5 19 -1 21 7 19 12 -4 10 -11 0 -18 -5 -15 -9z"/>
<path d="M4785 702 c-2 -3 0 -13 6 -24 12 -22 21 -17 26 11 2 16 -19 25 -32
13z"/>
<path d="M4832 697 c-7 -8 -7 -18 -2 -27 5 -8 7 -17 4 -21 -2 -4 0 -10 5 -13
5 -3 8 12 8 34 -1 45 -1 45 -15 27z"/>
<path d="M5110 680 c0 -5 5 -10 10 -10 6 0 10 -7 8 -16 -5 -28 18 -26 30 1 16
35 15 43 -2 19 -14 -18 -15 -18 -21 -1 -8 18 -25 24 -25 7z"/>
<path d="M4954 659 c-2 -5 6 -15 20 -24 14 -9 23 -22 20 -29 -5 -13 13 -25 44
-32 11 -2 11 1 1 13 -15 18 -19 52 -7 59 5 3 8 2 7 -3 -4 -22 2 -25 15 -8 12
17 13 17 12 -10 -1 -35 15 -42 33 -14 11 19 11 21 -3 16 -8 -3 -18 -1 -22 5
-4 6 -3 8 4 4 6 -3 14 -1 18 5 4 7 3 9 -4 5 -6 -3 -13 -2 -17 4 -3 6 -18 8
-32 5 -14 -2 -31 -1 -37 2 -16 10 -46 11 -52 2z m61 -36 c0 -10 5 -25 10 -33
8 -13 6 -13 -8 -1 -9 7 -14 17 -11 22 3 5 0 19 -7 31 -9 19 -9 21 1 11 7 -7
14 -20 15 -30z"/>
<path d="M6890 640 c0 -5 5 -10 11 -10 5 0 7 5 4 10 -3 6 -8 10 -11 10 -2 0
-4 -4 -4 -10z"/>
<path d="M4970 600 c-6 -11 -8 -20 -6 -20 3 0 10 9 16 20 6 11 8 20 6 20 -3 0
-10 -9 -16 -20z"/>
<path d="M6646 541 c-4 -5 -2 -12 3 -15 5 -4 12 -2 15 3 4 5 2 12 -3 15 -5 4
-12 2 -15 -3z"/>
<path d="M5136 531 c-4 -5 -2 -12 3 -15 5 -4 12 -2 15 3 4 5 2 12 -3 15 -5 4
-12 2 -15 -3z"/>
<path d="M5120 490 c-11 -7 -12 -12 -4 -20 8 -8 14 -7 23 4 14 17 1 28 -19 16z"/>
<path d="M3595 429 c-4 -6 -4 -13 -1 -16 3 -4 6 -1 6 6 0 7 5 9 12 5 7 -4 8
-3 4 4 -9 15 -13 15 -21 1z"/>
<path d="M6299 424 c-8 -10 -6 -12 10 -11 11 1 22 6 25 12 6 16 -22 15 -35 -1z"/>
<path d="M4946 414 c-6 -15 -4 -15 10 -3 15 12 16 11 11 -11 -4 -14 -4 -19 -1
-12 3 6 10 9 16 6 6 -4 5 2 -1 15 -14 25 -27 27 -35 5z"/>
<path d="M5088 416 c-11 -8 -14 -17 -7 -27 7 -12 9 -11 9 3 0 9 6 18 13 21 6
2 10 7 7 10 -3 3 -13 0 -22 -7z"/>
<path d="M3666 402 c-3 -5 1 -9 9 -9 8 0 15 4 15 9 0 4 -4 8 -9 8 -6 0 -12 -4
-15 -8z"/>
<path d="M4841 398 c7 -7 19 -19 25 -26 9 -11 13 -11 19 -1 5 7 4 10 -2 6 -6
-4 -14 0 -17 9 -5 12 -1 14 17 8 12 -3 19 -3 15 1 -4 4 -22 9 -40 11 -26 3
-29 2 -17 -8z"/>
<path d="M4899 368 c-1 -7 -1 -17 0 -21 1 -5 -9 -6 -21 -2 -21 5 -21 5 -5 -5
10 -7 21 -9 25 -6 8 8 14 46 7 46 -3 0 -6 -6 -6 -12z"/>
<path d="M4921 354 c0 -11 3 -14 6 -6 3 7 2 16 -1 19 -3 4 -6 -2 -5 -13z"/>
<path d="M4955 360 c-6 -10 11 -50 21 -50 2 0 0 9 -6 19 -14 26 -13 31 5 25 8
-4 15 -4 15 -1 0 10 -30 16 -35 7z"/>
<path d="M5075 360 c-13 -6 -15 -9 -5 -9 8 0 22 4 30 9 18 12 2 12 -25 0z"/>
<path d="M6017 343 c3 -7 6 -13 8 -13 2 0 5 6 8 13 3 8 -1 14 -8 14 -7 0 -11
-6 -8 -14z"/>
<path d="M5037 335 c-7 -17 6 -27 26 -20 15 6 18 -29 4 -52 -6 -9 -3 -11 7 -7
9 4 13 17 12 37 -3 26 -7 32 -24 30 -15 -2 -20 2 -16 12 4 8 4 15 1 15 -3 0
-7 -7 -10 -15z"/>
<path d="M5094 339 c-4 -7 -3 -9 4 -5 5 3 13 0 15 -6 4 -9 6 -10 6 -1 1 17
-16 25 -25 12z"/>
<path d="M4846 322 c-3 -5 1 -9 9 -9 8 0 15 4 15 9 0 4 -4 8 -9 8 -6 0 -12 -4
-15 -8z"/>
<path d="M4930 320 c0 -5 5 -10 10 -10 6 0 10 5 10 10 0 6 -4 10 -10 10 -5 0
-10 -4 -10 -10z"/>
<path d="M5857 313 c-4 -3 -7 -11 -7 -17 0 -6 5 -5 12 2 6 6 9 14 7 17 -3 3
-9 2 -12 -2z"/>
<path d="M4895 300 c-3 -6 1 -7 9 -4 18 7 21 14 7 14 -6 0 -13 -4 -16 -10z"/>
<path d="M4946 285 c-4 -11 -4 -16 0 -12 4 4 13 -1 21 -11 12 -16 13 -16 6 2
-5 14 -3 17 7 11 9 -5 11 -4 6 4 -4 6 -11 9 -16 6 -4 -3 -10 0 -12 7 -3 7 -7
4 -12 -7z"/>
<path d="M5776 285 c-3 -8 -1 -15 4 -15 6 0 10 7 10 15 0 8 -2 15 -4 15 -2 0
-6 -7 -10 -15z"/>
<path d="M4228 278 c5 -5 16 -8 23 -6 8 3 3 7 -10 11 -17 4 -21 3 -13 -5z"/>
<path d="M4910 281 c0 -6 4 -13 10 -16 6 -3 7 1 4 9 -7 18 -14 21 -14 7z"/>
<path d="M5015 280 c-3 -6 1 -7 9 -4 18 7 21 14 7 14 -6 0 -13 -4 -16 -10z"/>
<path d="M4343 266 c0 -6 17 -11 38 -11 21 -1 36 3 33 7 -2 3 -13 5 -24 3 -11
-2 -20 0 -20 4 0 4 -6 8 -13 8 -8 0 -14 -5 -14 -11z"/>
<path d="M5666 272 c-3 -5 1 -9 9 -9 8 0 15 4 15 9 0 4 -4 8 -9 8 -6 0 -12 -4
-15 -8z"/>
<path d="M4196 258 c3 -5 10 -6 15 -3 13 9 11 12 -6 12 -8 0 -12 -4 -9 -9z"/>
<path d="M4853 257 c-3 -6 -1 -7 5 -3 5 3 12 1 14 -6 3 -8 6 -7 10 3 7 17 -19
22 -29 6z"/>
<path d="M4993 247 c0 -7 9 -14 19 -14 10 -1 18 3 18 9 0 6 -3 8 -7 5 -3 -4
-11 -2 -18 3 -8 7 -12 6 -12 -3z"/>
<path d="M5870 256 c0 -2 8 -10 18 -17 15 -13 16 -12 3 4 -13 16 -21 21 -21
13z"/>
<path d="M4915 240 c-3 -5 -1 -10 4 -10 6 0 11 5 11 10 0 6 -2 10 -4 10 -3 0
-8 -4 -11 -10z"/>
<path d="M5376 233 c-6 -14 -5 -15 5 -6 7 7 10 15 7 18 -3 3 -9 -2 -12 -12z"/>
<path d="M5400 239 c0 -4 6 -9 13 -12 8 -3 14 0 14 7 0 7 -6 13 -14 13 -7 0
-13 -4 -13 -8z"/>
<path d="M4526 222 c-3 -5 1 -9 9 -9 8 0 12 4 9 9 -3 4 -7 8 -9 8 -2 0 -6 -4
-9 -8z"/>
<path d="M4830 221 c0 -6 4 -13 10 -16 6 -3 7 1 4 9 -7 18 -14 21 -14 7z"/>
<path d="M5073 223 c4 -3 1 -13 -6 -22 -11 -14 -10 -14 5 -2 16 12 16 31 1 31
-4 0 -3 -3 0 -7z"/>
<path d="M5460 220 c-9 -6 -10 -10 -3 -10 6 0 15 5 18 10 8 12 4 12 -15 0z"/>
<path d="M4982 204 c10 -10 20 -16 22 -13 3 3 -5 11 -17 18 -21 13 -21 12 -5
-5z"/>
<path d="M5295 209 c-4 -6 -5 -12 -2 -15 2 -3 7 2 10 11 7 17 1 20 -8 4z"/>
<path d="M4736 198 c3 -5 10 -6 15 -3 13 9 11 12 -6 12 -8 0 -12 -4 -9 -9z"/>
<path d="M5533 191 c0 -11 5 -18 9 -15 4 3 5 11 1 19 -7 21 -12 19 -10 -4z"/>
<path d="M4950 196 c0 -2 8 -10 18 -17 15 -13 16 -12 3 4 -13 16 -21 21 -21
13z"/>
<path d="M5035 189 c-4 -6 -5 -12 -2 -15 2 -3 7 2 10 11 7 17 1 20 -8 4z"/>
<path d="M4376 182 c-3 -5 1 -9 9 -9 8 0 12 4 9 9 -3 4 -7 8 -9 8 -2 0 -6 -4
-9 -8z"/>
<path d="M4455 180 c-3 -5 -1 -10 4 -10 6 0 11 5 11 10 0 6 -2 10 -4 10 -3 0
-8 -4 -11 -10z"/>
<path d="M4486 178 c3 -5 10 -6 15 -3 13 9 11 12 -6 12 -8 0 -12 -4 -9 -9z"/>
<path d="M4535 180 c-3 -5 -1 -10 4 -10 6 0 11 5 11 10 0 6 -2 10 -4 10 -3 0
-8 -4 -11 -10z"/>
<path d="M4570 180 c0 -5 5 -10 11 -10 5 0 7 5 4 10 -3 6 -8 10 -11 10 -2 0
-4 -4 -4 -10z"/>
<path d="M4775 183 c3 -3 0 -11 -5 -18 -7 -8 -5 -12 4 -12 14 0 16 22 3 32 -4
3 -5 2 -2 -2z"/>
<path d="M4874 172 c11 -12 21 -20 24 -17 3 3 12 -1 21 -8 14 -11 14 -10 2 6
-8 9 -16 15 -19 12 -3 -3 -15 3 -26 12 -21 18 -21 18 -2 -5z"/>
<path d="M5075 181 c-3 -5 -2 -12 3 -15 5 -3 9 1 9 9 0 17 -3 19 -12 6z"/>
<path d="M5107 179 c7 -7 15 -10 18 -7 3 3 -2 9 -12 12 -14 6 -15 5 -6 -5z"/>
<path d="M5456 182 c-3 -4 4 -9 15 -9 23 -2 25 3 4 10 -8 4 -16 3 -19 -1z"/>
<path d="M4679 153 c-13 -16 -12 -17 4 -4 16 13 21 21 13 21 -2 0 -10 -8 -17
-17z"/>
<path d="M4936 158 c3 -5 10 -6 15 -3 13 9 11 12 -6 12 -8 0 -12 -4 -9 -9z"/>
<path d="M4495 151 c-3 -5 -2 -12 3 -15 5 -3 9 1 9 9 0 17 -3 19 -12 6z"/>
<path d="M4995 151 c-3 -5 -2 -12 3 -15 5 -3 9 1 9 9 0 17 -3 19 -12 6z"/>
<path d="M5034 145 c1 -8 8 -21 16 -28 12 -10 12 -9 2 4 -6 9 -9 18 -6 21 3 3
1 9 -4 12 -6 3 -9 -1 -8 -9z"/>
<path d="M4575 140 c-3 -5 -1 -10 4 -10 6 0 11 5 11 10 0 6 -2 10 -4 10 -3 0
-8 -4 -11 -10z"/>
<path d="M5330 140 c0 -5 5 -10 11 -10 5 0 7 5 4 10 -3 6 -8 10 -11 10 -2 0
-4 -4 -4 -10z"/>
<path d="M5390 145 c0 -7 30 -13 34 -7 3 4 -4 9 -15 9 -10 1 -19 0 -19 -2z"/>
<path d="M4716 118 c3 -5 10 -6 15 -3 13 9 11 12 -6 12 -8 0 -12 -4 -9 -9z"/>
<path d="M5530 126 c0 -2 7 -7 16 -10 8 -3 12 -2 9 4 -6 10 -25 14 -25 6z"/>
<path d="M4815 100 c3 -5 8 -10 11 -10 2 0 4 5 4 10 0 6 -5 10 -11 10 -5 0 -7
-4 -4 -10z"/>
<path d="M4935 100 c3 -5 8 -10 11 -10 2 0 4 5 4 10 0 6 -5 10 -11 10 -5 0 -7
-4 -4 -10z"/>
<path d="M5250 100 c0 -5 5 -10 11 -10 5 0 7 5 4 10 -3 6 -8 10 -11 10 -2 0
-4 -4 -4 -10z"/>
<path d="M5286 98 c3 -5 10 -6 15 -3 13 9 11 12 -6 12 -8 0 -12 -4 -9 -9z"/>
<path d="M5335 99 c-3 -4 2 -6 10 -5 21 3 28 13 10 13 -9 0 -18 -4 -20 -8z"/>
<path d="M4673 85 c0 -8 4 -12 9 -9 5 3 6 10 3 15 -9 13 -12 11 -12 -6z"/>
<path d="M4490 86 c0 -2 7 -7 16 -10 8 -3 12 -2 9 4 -6 10 -25 14 -25 6z"/>
<path d="M4635 81 c-3 -5 -2 -12 3 -15 5 -3 9 1 9 9 0 17 -3 19 -12 6z"/>
<path d="M5150 81 c0 -6 4 -13 10 -16 6 -3 7 1 4 9 -7 18 -14 21 -14 7z"/>
<path d="M4715 60 c3 -5 8 -10 11 -10 2 0 4 5 4 10 0 6 -5 10 -11 10 -5 0 -7
-4 -4 -10z"/>
<path d="M4806 58 c3 -5 10 -6 15 -3 13 9 11 12 -6 12 -8 0 -12 -4 -9 -9z"/>
<path d="M4975 60 c-3 -5 -1 -10 4 -10 6 0 11 5 11 10 0 6 -2 10 -4 10 -3 0
-8 -4 -11 -10z"/>
<path d="M5235 59 c-3 -4 2 -6 10 -5 21 3 28 13 10 13 -9 0 -18 -4 -20 -8z"/>
<path d="M4910 45 c0 -5 5 -17 10 -25 5 -8 10 -10 10 -5 0 6 -5 17 -10 25 -5
8 -10 11 -10 5z"/>
</g>
</svg>
